<?xml version="1.0" encoding="utf-8"?>
<!-- Generator: Adobe Illustrator 22.1.0, SVG Export Plug-In . SVG Version: 6.00 Build 0)  -->
<svg version="1.1" id="Слой_1" xmlns="http://www.w3.org/2000/svg" xmlns:xlink="http://www.w3.org/1999/xlink" x="0px" y="0px"
	 viewBox="0 0 135.5 58.1" style="enable-background:new 0 0 135.5 58.1;" xml:space="preserve">
<style type="text/css">
	.st0{fill:#3C4150;}
	.st1{fill:#F52332;}
</style>
<polygon class="st0" points="91.3,44.2 85.4,44.2 85.4,28.9 82.2,38.9 79.2,38.9 76,28.9 76,44.2 70.2,44.2 70.2,14.8 75.3,14.8 
	80.7,29.2 86.1,14.8 91.3,14.8 "/>
<path class="st0" d="M101.4,44.2h-5.9V14.8h5.9V44.2z M114.1,44.2h-6.4l-6.2-15.3l5.6-14.1h6.2l-5.8,13.8L114.1,44.2z"/>
<path class="st0" d="M122.8,44.2H117V14.8h5.9V44.2z M135.5,44.2h-6.4l-6.2-15.3l5.6-14.1h6.2l-5.8,13.8L135.5,44.2z"/>
<polygon class="st0" points="74.4,52.2 71.2,52.2 71.2,58.1 70.2,58.1 70.2,51.2 74.4,51.2 "/>
<path class="st0" d="M77.8,58.1h-1v-6.8h1V58.1z M81.9,58.1h-1.3l-2.7-3.6l2.5-3.2h1.3L79,54.5L81.9,58.1z"/>
<polygon class="st0" points="91.8,52.2 88.6,52.2 88.6,58.1 87.6,58.1 87.6,51.2 91.8,51.2 "/>
<path class="st0" d="M98.3,51.8c0.4,0.4,0.6,0.9,0.6,1.5c0,0.6-0.2,1.1-0.6,1.5c-0.4,0.4-0.9,0.6-1.6,0.6h-1.5v2.7h-1v-6.8h2.6
	C97.4,51.2,98,51.4,98.3,51.8 M97.6,54.1c0.2-0.2,0.3-0.5,0.3-0.8c0-0.4-0.1-0.6-0.3-0.8c-0.2-0.2-0.5-0.3-0.9-0.3h-1.5v2.3h1.5
	C97.1,54.4,97.4,54.3,97.6,54.1"/>
<path class="st0" d="M106,58.1h-1.1l-0.5-1.4h-2.7l-0.5,1.4h-1.1l2.5-6.8h0.8L106,58.1z M104.1,55.8l-1-3l-1.1,3H104.1z"/>
<polygon class="st0" points="113,58.1 111.9,58.1 111.9,55.1 109.2,55.1 109.2,58.1 108.1,58.1 108.1,51.2 109.2,51.2 109.2,54.2 
	111.9,54.2 111.9,51.2 113,51.2 "/>
<polygon class="st0" points="120.4,58.1 116,58.1 116,51.2 120.4,51.2 120.4,52.2 117,52.2 117,54.2 119.9,54.2 119.9,55.1 
	117,55.1 117,57.1 120.4,57.1 "/>
<path class="st0" d="M127.7,58.1h-1v-5.9h-2v2.2c0,1.4-0.2,2.4-0.5,2.9c-0.3,0.6-0.9,0.8-1.6,0.8h-0.4v-0.9h0.2c0.2,0,0.4,0,0.5-0.1
	c0.1-0.1,0.3-0.2,0.4-0.4c0.1-0.2,0.2-0.5,0.3-0.9c0.1-0.4,0.1-0.9,0.1-1.5v-2.9h4V58.1z"/>
<path class="st0" d="M134.9,54.5c0.4,0.4,0.6,0.9,0.6,1.5c0,0.6-0.2,1.1-0.6,1.5c-0.4,0.4-0.9,0.6-1.6,0.6h-2.6v-6.8h1v2.7h1.6
	C134,53.9,134.5,54.1,134.9,54.5 M134.5,56c0-0.4-0.1-0.6-0.3-0.8c-0.2-0.2-0.5-0.3-0.9-0.3h-1.5v2.3h1.5c0.4,0,0.7-0.1,0.9-0.3
	C134.4,56.6,134.5,56.3,134.5,56"/>
<polygon class="st1" points="52.8,11.6 52.8,0 31.9,0 26.4,20.7 20.8,0 0,0 0,35.6 "/>
<polygon class="st0" points="17.4,35.6 29.9,58.1 42.4,35.6 42.4,58.1 56.3,58.1 56.3,13.1 3.5,37.1 3.5,58.1 17.4,58.1 "/>
</svg>
