<svg xmlns="http://www.w3.org/2000/svg" viewBox="0 0 135.5 112" xml:space="preserve">
<g fill="#fff">
<polygon points="23.1,35.2 16,0 0,0 0,42.5"/>
<polygon points="64,22.4 64,0 48,0 42.2,29.2"/>
<polygon points="48,87.7 48,112 64,112 64,94.8"/>
<polygon points="0,66.5 0,112 16,112 16,74.6 24,112 40,112 45.5,86.6"/>
<polygon points="76.6,79.1 68.9,79.1 68.9,58.6 64.5,72.2 60.5,72.2 56.2,58.8 56.2,79.1 48.5,79.1 48.5,39.8 55.4,39.8 62.6,59.1 69.7,39.8 76.6,39.8"/>
<path d="M107.6,79.1H99l-8.2-20.5l7.6-18.8h8.2l-7.7,18.5L107.6,79.1z M90.5,79.1h-7.9V39.8h7.9V79.1z"/>
<path d="M135.5,79.1H127l-8.2-20.5l7.4-18.8h8.2l-7.7,18.5L135.5,79.1z M118.5,79.1h-7.9V39.8h7.9V79.1z"/>
</g>
</svg>
