<?xml version="1.0" encoding="utf-8"?>
<!-- Generator: Adobe Illustrator 22.1.0, SVG Export Plug-In . SVG Version: 6.00 Build 0)  -->
<svg version="1.1" id="Слой_2" xmlns="http://www.w3.org/2000/svg" xmlns:xlink="http://www.w3.org/1999/xlink" x="0px" y="0px"
	 viewBox="0 0 135.5 58.1" style="enable-background:new 0 0 135.5 58.1;" xml:space="preserve">
<style type="text/css">
	.st0{fill:#FFFFFF;}
</style>
<polygon class="st0" points="91.3,44.2 85.4,44.2 85.4,28.8 82.2,38.9 79.2,38.9 76,28.9 76,44.2 70.1,44.2 70.1,14.7 75.3,14.7 
	80.7,29.2 86.1,14.7 91.3,14.7 "/>
<path class="st0" d="M114,44.2h-6.4l-6.2-15.3l5.6-14.1h6.2l-5.8,13.8L114,44.2z M101.4,44.2h-5.9V14.7h5.9V44.2z"/>
<path class="st0" d="M135.5,44.2H129l-6.2-15.3l5.6-14.1h6.2l-5.8,13.8L135.5,44.2z M122.8,44.2h-5.9V14.7h5.9V44.2z"/>
<polygon class="st0" points="74.3,52.2 71.2,52.2 71.2,58 70.1,58 70.1,51.2 74.3,51.2 "/>
<path class="st0" d="M81.9,58h-1.3l-2.7-3.6l2.5-3.2h1.3L79,54.4L81.9,58z M77.8,58h-1v-6.8h1V58z"/>
<polygon class="st0" points="91.7,52.2 88.6,52.2 88.6,58 87.6,58 87.6,51.2 91.7,51.2 "/>
<path class="st0" d="M97.6,54.1c0.2-0.2,0.3-0.5,0.3-0.8c0-0.4-0.1-0.6-0.3-0.8c-0.2-0.2-0.5-0.3-0.9-0.3h-1.5v2.3h1.5
	C97.1,54.4,97.3,54.3,97.6,54.1 M98.3,51.8c0.4,0.4,0.6,0.9,0.6,1.5c0,0.6-0.2,1.1-0.6,1.5c-0.4,0.4-0.9,0.6-1.6,0.6h-1.5V58h-1
	v-6.8h2.6C97.4,51.2,97.9,51.4,98.3,51.8"/>
<path class="st0" d="M104.1,55.8l-1-3l-1.1,3H104.1z M105.9,58h-1.1l-0.5-1.4h-2.7l-0.5,1.4h-1.1l2.5-6.8h0.8L105.9,58z"/>
<polygon class="st0" points="112.9,58 111.9,58 111.9,55.1 109.1,55.1 109.1,58 108.1,58 108.1,51.2 109.1,51.2 109.1,54.1 
	111.9,54.1 111.9,51.2 112.9,51.2 "/>
<polygon class="st0" points="120.3,58 116,58 116,51.2 120.3,51.2 120.3,52.2 117,52.2 117,54.1 119.8,54.1 119.8,55.1 117,55.1 
	117,57.1 120.3,57.1 "/>
<path class="st0" d="M127.7,58h-1v-5.9h-2v2.2c0,1.4-0.2,2.4-0.5,2.9c-0.3,0.6-0.8,0.8-1.6,0.8h-0.4v-0.9h0.2c0.2,0,0.4,0,0.5-0.1
	c0.1-0.1,0.3-0.2,0.4-0.4c0.1-0.2,0.2-0.5,0.3-0.9c0.1-0.4,0.1-0.9,0.1-1.5v-2.9h4V58z"/>
<path class="st0" d="M134.5,56c0-0.4-0.1-0.6-0.3-0.8c-0.2-0.2-0.5-0.3-0.9-0.3h-1.5v2.3h1.5c0.4,0,0.7-0.1,0.9-0.3
	C134.3,56.6,134.5,56.3,134.5,56 M134.9,54.5c0.4,0.4,0.6,0.9,0.6,1.5c0,0.6-0.2,1.1-0.6,1.5c-0.4,0.4-0.9,0.6-1.6,0.6h-2.6v-6.8h1
	v2.7h1.6C134,53.9,134.5,54.1,134.9,54.5"/>
<path class="st0" d="M52.7,0H31.9l-5.5,20.7L20.8,0H0v35.6l52.7-24V0z M20,1l5.3,20l0.5,1.7L1,34V1H20z M51.7,1V11L27.1,22.2
	l0.3-1.2l5.3-20H51.7z"/>
<polygon class="st0" points="17.4,35.6 29.9,58.1 42.3,35.6 42.3,58.1 56.2,58.1 56.2,13.1 3.5,37.1 3.5,58.1 17.4,58.1 "/>
</svg>
