<?xml version="1.0" encoding="utf-8"?>
<!-- Generator: Adobe Illustrator 22.1.0, SVG Export Plug-In . SVG Version: 6.00 Build 0)  -->
<svg version="1.1"
	 id="svg7284" inkscape:version="0.92.4 (5da689c313, 2019-01-14)" sodipodi:docname="Flag_of_Bashkortostan.svg" xmlns:cc="http://creativecommons.org/ns#" xmlns:dc="http://purl.org/dc/elements/1.1/" xmlns:inkscape="http://www.inkscape.org/namespaces/inkscape" xmlns:rdf="http://www.w3.org/1999/02/22-rdf-syntax-ns#" xmlns:sodipodi="http://sodipodi.sourceforge.net/DTD/sodipodi-0.dtd" xmlns:svg="http://www.w3.org/2000/svg"
	 xmlns="http://www.w3.org/2000/svg" xmlns:xlink="http://www.w3.org/1999/xlink" x="0px" y="0px" viewBox="0 0 25 16.7"
	 style="enable-background:new 0 0 25 16.7;" xml:space="preserve">
<style type="text/css">
	.st0{fill:#007000;}
	.st1{fill:#0070FF;}
	.st2{fill:#FFFFFF;}
	.st3{fill:#FFD700;}
</style>
<sodipodi:namedview  bordercolor="#666666" borderopacity="1" gridtolerance="10" guidetolerance="10" id="namedview7286" inkscape:current-layer="svg7284" inkscape:cx="103.51769" inkscape:cy="213.58996" inkscape:pageopacity="0" inkscape:pageshadow="2" inkscape:window-height="705" inkscape:window-maximized="1" inkscape:window-width="1366" inkscape:window-x="-8" inkscape:window-y="-8" inkscape:zoom="0.42312598" objecttolerance="10" pagecolor="#ffffff" showgrid="false">
	</sodipodi:namedview>
<path id="path6690" inkscape:connector-curvature="0" class="st0" d="M0,8.3h25v8.3H0V8.3z"/>
<path id="path6686" inkscape:connector-curvature="0" class="st1" d="M0,0h25v8.3H0V0z"/>
<path id="path6688" inkscape:connector-curvature="0" class="st2" d="M0,5.6h25v5.6H0V5.6z"/>
<path id="path7870_1_" inkscape:connector-curvature="0" d="M12.5,8.3h1.4"/>
<path id="path7876_1_" inkscape:connector-curvature="0" d="M12.5,8.3l1.2-0.7"/>
<path id="path7882_1_" inkscape:connector-curvature="0" d="M12.5,8.3l0.7-1.2"/>
<path id="path7888_1_" inkscape:connector-curvature="0" d="M12.5,8.3V6.9"/>
<path id="path7894_1_" inkscape:connector-curvature="0" d="M12.5,8.3l-0.7-1.2"/>
<path id="path7900_1_" inkscape:connector-curvature="0" d="M12.5,8.3l-1.2-0.7"/>
<path id="path7906_1_" inkscape:connector-curvature="0" d="M12.5,8.3h-1.4"/>
<g>
	<path id="path6710_1_" inkscape:connector-curvature="0" inkscape:export-xdpi="1199.9998" inkscape:export-ydpi="1199.9998" d="
		M12.5,8.3v1.4"/>
	<g>
		<path class="st3" d="M12.5,6.1c-1.2,0-2.2,1-2.2,2.2s1,2.2,2.2,2.2s2.2-1,2.2-2.2S13.7,6.1,12.5,6.1z M12.5,10.3
			c-1.1,0-1.9-0.9-1.9-1.9c0-1.1,0.9-1.9,1.9-1.9c1.1,0,1.9,0.9,1.9,1.9C14.4,9.4,13.6,10.3,12.5,10.3z"/>
		<path class="st3" d="M13.9,8.1c-0.1,0-0.3,0.1-0.3,0.3h-0.7c0-0.1,0-0.1,0-0.2l0.6-0.3c0.1,0.1,0.2,0.2,0.4,0.1
			C14,7.8,14,7.6,13.9,7.5c-0.1-0.1-0.2-0.2-0.4-0.1c-0.1,0.1-0.2,0.2-0.1,0.4l-0.6,0.3c0,0-0.1-0.1-0.1-0.1l0.3-0.6
			c0.1,0.1,0.3,0,0.4-0.1c0.1-0.1,0-0.3-0.1-0.4C13.2,6.8,13,6.9,13,7c-0.1,0.1,0,0.3,0.1,0.4l-0.3,0.6c-0.1,0-0.1,0-0.2,0V7.2
			c0.1,0,0.3-0.1,0.3-0.3c0-0.2-0.1-0.3-0.3-0.3s-0.3,0.1-0.3,0.3c0,0.1,0.1,0.3,0.3,0.3v0.7c-0.1,0-0.1,0-0.2,0L12,7.4
			C12.1,7.3,12.1,7.1,12,7c-0.1-0.1-0.2-0.2-0.4-0.1c-0.1,0.1-0.2,0.2-0.1,0.4c0.1,0.1,0.2,0.2,0.4,0.1L12.3,8c0,0-0.1,0.1-0.1,0.1
			l-0.6-0.3c0.1-0.1,0-0.3-0.1-0.4c-0.1-0.1-0.3,0-0.4,0.1c-0.1,0.1,0,0.3,0.1,0.4c0.1,0.1,0.3,0,0.4-0.1l0.6,0.3c0,0.1,0,0.1,0,0.2
			h-0.7c0-0.1-0.1-0.3-0.3-0.3c-0.2,0-0.3,0.1-0.3,0.3s0.1,0.3,0.3,0.3c0.1,0,0.3-0.1,0.3-0.3h0.7c0,0.2,0.2,0.4,0.4,0.4v0.9h0.1
			V8.8c0.2,0,0.4-0.2,0.4-0.4h0.7c0,0.1,0.1,0.3,0.3,0.3c0.2,0,0.3-0.1,0.3-0.3S14,8.1,13.9,8.1z"/>
	</g>
</g>
</svg>
