<?xml version="1.0" encoding="utf-8"?>
<!-- Generator: Adobe Illustrator 22.1.0, SVG Export Plug-In . SVG Version: 6.00 Build 0)  -->
<svg version="1.1" id="flag-icon-css-gb" xmlns="http://www.w3.org/2000/svg" xmlns:xlink="http://www.w3.org/1999/xlink" x="0px"
	 y="0px" viewBox="0 0 25 17" style="enable-background:new 0 0 25 17;" xml:space="preserve">
<style type="text/css">
	.st0{fill:#000066;}
	.st1{fill:#FFFFFF;}
	.st2{fill:#CC0000;}
</style>
<title></title>
<g transform="translate(80) scale(.94)">
	<g>
		<path class="st0" d="M-85,0h26.4v18.1H-85V0z"/>
		<path class="st1" d="M-85,0v2l23.5,16.1h3v-2L-82,0H-85z M-58.6,0v2L-82,18.1h-3v-2L-61.5,0H-58.6z"/>
		<path class="st1" d="M-74,0v18.1h4.4V0H-74z M-85,6v6h26.4V6H-85z"/>
		<path class="st2" d="M-85,7.2v3.6h26.4V7.2H-85z M-73.1,0v18.1h2.7V0H-73.1z M-85,18.1l8.8-6h2l-8.8,6H-85z M-85,0l8.8,6h-2
			L-85,1.3V0z M-69.3,6l8.8-6h2l-8.8,6H-69.3L-69.3,6z M-58.6,18.1l-8.8-6h2l6.8,4.7C-58.6,16.8-58.6,18.1-58.6,18.1z"/>
	</g>
</g>
</svg>
