<?xml version="1.0" encoding="utf-8"?>
<!-- Generator: Adobe Illustrator 22.1.0, SVG Export Plug-In . SVG Version: 6.00 Build 0)  -->
<svg version="1.1" id="Слой_1" xmlns="http://www.w3.org/2000/svg" xmlns:xlink="http://www.w3.org/1999/xlink" x="0px" y="0px"
	 viewBox="0 0 25 25" style="enable-background:new 0 0 25 25;" xml:space="preserve">
<style type="text/css">
	.st0{fill:#232F4F;}
</style>
<path class="st0" d="M25,12.5C25,5.6,19.4,0,12.5,0C5.6,0,0,5.6,0,12.5C0,19.4,5.6,25,12.5,25c0.1,0,0.1,0,0.2,0v-9.7H10v-3.1h2.7
	V9.8c0-2.7,1.6-4.1,4-4.1c1.1,0,2.1,0.1,2.4,0.1v2.8h-1.6c-1.3,0-1.5,0.6-1.5,1.5v2h3.1l-0.4,3.1H16v9.3C21.2,23,25,18.2,25,12.5z"
	/>
</svg>
