<?xml version="1.0" encoding="utf-8"?>
<!-- Generator: Adobe Illustrator 22.1.0, SVG Export Plug-In . SVG Version: 6.00 Build 0)  -->
<svg version="1.1" id="Слой_1" xmlns="http://www.w3.org/2000/svg" xmlns:xlink="http://www.w3.org/1999/xlink" x="0px" y="0px"
	 viewBox="0 0 25 25" style="enable-background:new 0 0 25 25;" xml:space="preserve">
<style type="text/css">
	.st0{clip-path:url(#SVGID_2_);}
	.st1{fill:#232F4F;}
</style>
<g>
	<defs>
		<rect id="SVGID_1_" width="25" height="25"/>
	</defs>
	<clipPath id="SVGID_2_">
		<use xlink:href="#SVGID_1_"  style="overflow:visible;"/>
	</clipPath>
	<g class="st0">
		<path class="st1" d="M25,7.4c-0.1-1.3-0.3-2.2-0.6-3c-0.3-0.8-0.8-1.6-1.4-2.2c-0.6-0.6-1.4-1.1-2.2-1.4c-0.8-0.3-1.7-0.5-3-0.6
			C16.4,0,15.9,0,12.5,0C9.2,0,8.7,0,7.4,0.1c-1.3,0.1-2.2,0.3-3,0.6C3.5,1,2.8,1.5,2.1,2.1C1.5,2.7,1,3.5,0.7,4.3
			C0.4,5.1,0.2,6,0.1,7.3C0.1,8.7,0,9.1,0,12.5c0,3.4,0,3.8,0.1,5.2c0.1,1.3,0.3,2.2,0.6,3c0.3,0.8,0.8,1.6,1.4,2.2
			c0.6,0.6,1.4,1.1,2.2,1.4c0.8,0.3,1.7,0.5,3,0.6C8.7,25,9.1,25,12.5,25c3.4,0,3.8,0,5.2-0.1c1.3-0.1,2.2-0.3,3-0.6
			c1.7-0.6,3-2,3.7-3.7c0.3-0.8,0.5-1.7,0.6-3c0.1-1.3,0.1-1.8,0.1-5.2C25,9.1,25,8.7,25,7.4z M22.7,17.6c-0.1,1.2-0.3,1.9-0.4,2.3
			c-0.4,1.1-1.3,2-2.4,2.4c-0.4,0.2-1.1,0.4-2.3,0.4c-1.3,0.1-1.7,0.1-5,0.1c-3.3,0-3.7,0-5-0.1c-1.2-0.1-1.9-0.3-2.3-0.4
			c-0.5-0.2-1-0.5-1.4-0.9c-0.4-0.4-0.7-0.9-0.9-1.4c-0.2-0.4-0.4-1.1-0.4-2.3c-0.1-1.3-0.1-1.7-0.1-5c0-3.3,0-3.7,0.1-5
			c0.1-1.2,0.3-1.9,0.4-2.3c0.2-0.5,0.5-1,0.9-1.4C4.2,3.3,4.6,3,5.2,2.8c0.4-0.2,1.1-0.4,2.3-0.4c1.3-0.1,1.7-0.1,5-0.1
			c3.3,0,3.7,0,5,0.1c1.2,0.1,1.9,0.3,2.3,0.4c0.5,0.2,1,0.5,1.4,0.9c0.4,0.4,0.7,0.9,0.9,1.4c0.2,0.4,0.4,1.1,0.4,2.3
			c0.1,1.3,0.1,1.7,0.1,5C22.8,15.8,22.8,16.2,22.7,17.6z"/>
		<path class="st1" d="M12.5,6.1C9,6.1,6.1,9,6.1,12.5c0,3.5,2.9,6.4,6.4,6.4c3.5,0,6.4-2.9,6.4-6.4C19,9,16.1,6.1,12.5,6.1z
			 M12.5,16.7c-2.3,0-4.2-1.9-4.2-4.2c0-2.3,1.9-4.2,4.2-4.2c2.3,0,4.2,1.9,4.2,4.2C16.7,14.8,14.8,16.7,12.5,16.7z"/>
		<path class="st1" d="M20.7,5.8c0,0.8-0.7,1.5-1.5,1.5c-0.8,0-1.5-0.7-1.5-1.5c0-0.8,0.7-1.5,1.5-1.5C20,4.3,20.7,5,20.7,5.8z"/>
	</g>
</g>
</svg>
