<?xml version="1.0" encoding="utf-8"?>
<!-- Generator: Adobe Illustrator 22.1.0, SVG Export Plug-In . SVG Version: 6.00 Build 0)  -->
<svg version="1.1" id="Слой_1" xmlns="http://www.w3.org/2000/svg" xmlns:xlink="http://www.w3.org/1999/xlink" x="0px" y="0px"
	 viewBox="0 0 30 30" style="enable-background:new 0 0 30 30;" xml:space="preserve">
<style type="text/css">
	.st0{fill:#3E3F52;}
	.st1{fill:#FFFFFF;}
</style>
<circle class="st0" cx="15" cy="15" r="15"/>
<g>
	<path class="st1" d="M19,5.3h-8c-3.2,0-5.9,2.5-5.9,5.8V19c0,3.2,2.6,5.9,5.9,5.9h8c3.2,0,5.9-2.6,5.9-5.9v-8
		C24.7,7.8,22.1,5.3,19,5.3z M22.8,19c0,2.2-1.7,3.8-3.8,3.8h-8c-2.2,0-3.8-1.7-3.8-3.8v-8c0-2.2,1.7-3.8,3.8-3.8h8
		c2.2,0,3.8,1.7,3.8,3.8V19L22.8,19z"/>
	<path class="st1" d="M15,10c-2.8,0-5,2.3-5,5s2.3,5,5,5s5-2.3,5-5S17.8,10,15,10z M15,18.1c-1.7,0-3.1-1.4-3.1-3.1s1.4-3.1,3.1-3.1
		s3.1,1.4,3.1,3.1S16.7,18.1,15,18.1z"/>
	<circle class="st1" cx="20" cy="10" r="1.2"/>
</g>
</svg>
