
<svg xmlns="http://www.w3.org/2000/svg" viewBox="0 0 17.8 25" xml:space="preserve">
<g fill="#9597A9" transform="translate(232.000000, 376.000000)">
<path d="M-223.1-351l-0.5-0.6c-0.3-0.4-8.4-9.9-8.4-15.5c0-4.9,4-8.9,8.9-8.9s8.9,4,8.9,8.9 c0,5.7-8.1,15.2-8.4,15.5L-223.1-351L-223.1-351z M-223.1-374.8c-4.2,0-7.6,3.4-7.6,7.6c0,4.4,5.9,12,7.6,14.2 c1.7-2.2,7.6-9.7,7.6-14.2C-215.5-371.3-218.9-374.8-223.1-374.8L-223.1-374.8z"/>
<path d="M-223.1-363.7c-1.8,0-3.4-1.5-3.4-3.4s1.5-3.4,3.4-3.4s3.4,1.5,3.4,3.4 S-221.3-363.7-223.1-363.7L-223.1-363.7z M-223.1-369.2c-1.2,0-2.1,1-2.1,2.1c0,1.2,1,2.1,2.1,2.1c1.2,0,2.1-1,2.1-2.1 C-221-368.3-222-369.2-223.1-369.2L-223.1-369.2z"/>
</g>
</svg>
