<?xml version="1.0" encoding="utf-8"?>
<!-- Generator: Adobe Illustrator 22.1.0, SVG Export Plug-In . SVG Version: 6.00 Build 0)  -->
<svg version="1.1" id="Слой_1" xmlns="http://www.w3.org/2000/svg" xmlns:xlink="http://www.w3.org/1999/xlink" x="0px" y="0px"
	 viewBox="0 0 16.9 17" style="enable-background:new 0 0 16.9 17;" xml:space="preserve">
<style type="text/css">
	.st0{fill:#3C4150;}
</style>
<g>
	<g>
		<g>
			<path class="st0" d="M14.4,2.5C12.9,0.9,10.7,0,8.5,0C3.9,0,0.1,3.8,0.1,8.4c0,1.5,0.4,2.9,1.1,4.2L0,17l4.5-1.2
				c1.2,0.7,2.6,1,4,1l0,0l0,0c4.6,0,8.4-3.8,8.4-8.4C16.9,6.2,16,4.1,14.4,2.5z M8.5,15.4L8.5,15.4c-1.3,0-2.5-0.3-3.6-1l-0.3-0.2
				L2,15l0.7-2.6l-0.2-0.3C1.9,11,1.5,9.7,1.5,8.4c0-3.9,3.1-7,7-7c1.9,0,3.6,0.7,4.9,2.1c1.3,1.3,2,3.1,2,5
				C15.5,12.3,12.4,15.4,8.5,15.4z M12.3,10.2c-0.2-0.1-1.2-0.6-1.4-0.7c-0.2-0.1-0.3-0.1-0.5,0.1c-0.1,0.2-0.5,0.7-0.7,0.8
				c-0.1,0.1-0.2,0.2-0.5,0.1c-0.2-0.1-0.9-0.3-1.7-1C7,8.9,6.6,8.2,6.4,8c-0.1-0.2,0-0.3,0.1-0.4c0.1-0.1,0.2-0.2,0.3-0.4
				C6.9,7.1,7,7,7.1,6.8c0.1-0.1,0-0.3,0-0.4C7,6.4,6.6,5.3,6.4,4.9C6.2,4.5,6,4.5,5.9,4.5c-0.1,0-0.3,0-0.4,0
				c-0.1,0-0.4,0.1-0.6,0.3C4.8,5,4.2,5.5,4.2,6.6s0.8,2,0.9,2.2c0.1,0.1,1.5,2.3,3.6,3.2c0.5,0.2,0.9,0.3,1.2,0.4
				c0.5,0.2,1,0.1,1.3,0.1c0.4-0.1,1.2-0.5,1.4-1c0.2-0.5,0.2-0.9,0.1-1C12.7,10.3,12.5,10.3,12.3,10.2z"/>
		</g>
	</g>
</g>
</svg>
