<svg xmlns="http://www.w3.org/2000/svg" viewBox="0 0 17 17" xml:space="preserve">
<g fill="#fff">
<path d="M8.7,3.9v1.5c1.5,0.1,2.8,1.4,2.9,2.9h1.5C13,5.9,11.1,4,8.7,3.9z"/>
<path d="M17,12.9c0-0.4-0.3-0.7-0.7-0.7c-1.2,0-2.4-0.2-3.5-0.6c-0.3-0.1-0.5,0-0.7,0.2L9.7,14l-0.2-0.1 c-2.8-1.4-5.1-3.7-6.5-6.5L3,7.3L5.2,5c0.2-0.2,0.3-0.5,0.2-0.7C5,3.1,4.9,1.9,4.9,0.7C4.9,0.3,4.5,0,4.1,0H0.7C0.3,0,0,0.3,0,0.7 C0,9.7,7.3,17,16.3,17c0.4,0,0.7-0.3,0.7-0.7V12.9z M2.2,5.5C1.8,4.2,1.6,3,1.5,1.7l0-0.3h1.9l0,0.2c0.1,0.8,0.2,1.7,0.4,2.5l0,0.1 L2.4,5.8L2.2,5.5z M15.5,15.5l-0.3,0c-1.3-0.1-2.6-0.3-3.8-0.8l-0.4-0.1l1.5-1.5l0.1,0c0.8,0.2,1.6,0.4,2.5,0.4l0.2,0V15.5z"/>
<path d="M8.7,0v1.5c3.7,0.1,6.7,3.1,6.8,6.8H17C16.9,3.8,13.2,0.1,8.7,0z"/>
</g>
</svg>
