<svg width="10" height="10" viewBox="0 0 10 10" fill="none" xmlns="http://www.w3.org/2000/svg">
<path d="M8.7001 1.80001C8.8001 1.70001 8.8001 1.50001 8.7001 1.40001C8.6001 1.30001 8.4001 1.30001 8.3001 1.40001L1.3001 8.20001C1.2001 8.30001 1.2001 8.50001 1.3001 8.60001C1.4001 8.70001 1.6001 8.70001 1.7001 8.60001L8.7001 1.80001Z" fill="#9E9FA8"/>
<path d="M1.8002 1.30001C1.7002 1.20001 1.5002 1.20001 1.4002 1.30001C1.3002 1.40001 1.3002 1.60001 1.4002 1.70001L8.3002 8.60001C8.4002 8.70001 8.6002 8.70001 8.7002 8.60001C8.8002 8.50001 8.8002 8.30001 8.7002 8.20001L1.8002 1.30001Z" fill="#9E9FA8"/>
</svg>
