<svg width="10" height="18" viewBox="0 0 10 18" fill="none" xmlns="http://www.w3.org/2000/svg">
<g clip-path="url(#clip0_103_532)">
<path d="M3.8 18V15.9C2.8 15.7 2 15.3 1.3 14.7C0.7 14.1 0.2 13.3 0 12.4L1.9 11.7C2.1 12.5 2.5 13.1 3 13.5C3.5 13.8 4.1 14 4.8 14C5.5 14 6.1 13.8 6.5 13.5C6.9 13.2 7.1 12.7 7.1 12.2C7.1 11.6 6.9 11.1 6.4 10.7C6 10.3 5.2 9.9 4 9.5C2.8 9.2 2 8.7 1.4 8C0.8 7.3 0.5 6.5 0.5 5.5C0.5 4.7 0.8 3.9 1.3 3.3C1.8 2.6 2.7 2.2 3.8 2.1V0H5.5V2.1C6.3 2.2 6.9 2.5 7.5 3C8.1 3.4 8.5 4 8.8 4.7L6.9 5.4C6.7 4.9 6.4 4.6 6 4.3C5.6 4.1 5.2 3.9 4.6 3.9C3.9 3.9 3.4 4 3.1 4.3C2.7 4.6 2.5 5 2.5 5.5C2.5 6 2.7 6.5 3.1 6.8C3.5 7.1 4.4 7.5 5.7 8C6.8 8.4 7.7 8.9 8.3 9.6C8.9 10.3 9.2 11.1 9.2 12.2C9.2 13.3 8.9 14.1 8.3 14.8C7.7 15.5 6.8 15.9 5.5 16.1V18H3.8Z" fill="#3E3F52"/>
</g>
<defs>
<clipPath id="clip0_103_532">
<rect width="9.2" height="18" fill="white"/>
</clipPath>
</defs>
</svg>
