<?xml version="1.0" encoding="utf-8"?>
<!-- Generator: Adobe Illustrator 22.1.0, SVG Export Plug-In . SVG Version: 6.00 Build 0)  -->
<svg version="1.1" id="Слой_1" xmlns="http://www.w3.org/2000/svg" xmlns:xlink="http://www.w3.org/1999/xlink" x="0px" y="0px"
	 viewBox="0 0 30 30" style="enable-background:new 0 0 30 30;" xml:space="preserve">
<style type="text/css">
	.st0{fill:url(#SVGID_1_);}
	.st1{fill:#FFFFFF;}
	.st2{fill:url(#SVGID_2_);}
</style>
<g>
	<linearGradient id="SVGID_1_" gradientUnits="userSpaceOnUse" x1="0" y1="15" x2="30" y2="15">
		<stop  offset="0" style="stop-color:#0BA0D2"/>
		<stop  offset="1" style="stop-color:#2EB29E"/>
	</linearGradient>
	<circle class="st0" cx="15" cy="15" r="15"/>
	<path class="st1" d="M8.7,8.1h7.2c1.8,0,3.4,1.5,3.4,3.4v7.2c0,1.8-1.5,3.4-3.4,3.4H8.7c-1.8,0-3.4-1.5-3.4-3.4v-7.2
		C5.3,9.6,6.8,8.1,8.7,8.1z"/>
	<path class="st1" d="M13.7,15l9.4,5.4c0.7,0.4,1.7-0.1,1.7-1v-8.9c0-0.9-0.9-1.4-1.7-1L13.7,15z"/>
</g>
<g>
	<linearGradient id="SVGID_2_" gradientUnits="userSpaceOnUse" x1="0" y1="15" x2="30" y2="15">
		<stop  offset="0" style="stop-color:#0BA0D2"/>
		<stop  offset="1" style="stop-color:#2EB29E"/>
	</linearGradient>
	<circle class="st2" cx="15" cy="15" r="15"/>
	<path class="st1" d="M8.7,8.1h7.2c1.8,0,3.4,1.5,3.4,3.4v7.2c0,1.8-1.5,3.4-3.4,3.4H8.7c-1.8,0-3.4-1.5-3.4-3.4v-7.2
		C5.3,9.6,6.8,8.1,8.7,8.1z"/>
	<path class="st1" d="M13.7,15l9.4,5.4c0.7,0.4,1.7-0.1,1.7-1v-8.9c0-0.9-0.9-1.4-1.7-1L13.7,15z"/>
</g>
</svg>
