<?xml version="1.0" encoding="utf-8"?>
<!-- Generator: Adobe Illustrator 22.1.0, SVG Export Plug-In . SVG Version: 6.00 Build 0)  -->
<svg version="1.1" id="Слой_1" xmlns="http://www.w3.org/2000/svg" xmlns:xlink="http://www.w3.org/1999/xlink" x="0px" y="0px"
	 viewBox="0 0 128 128" style="enable-background:new 0 0 128 128;" xml:space="preserve">
<style type="text/css">
	.st0{fill:url(#Fill-55_1_);}
	.st1{fill:url(#Fill-56_1_);}
</style>
<title></title>
<g id="_x31_._luggage">
</g>
<g>
	<g id="Icon-Location" transform="translate(232.000000, 376.000000)">
		<linearGradient id="Fill-55_1_" gradientUnits="userSpaceOnUse" x1="-213.8417" y1="-311.9688" x2="-122.96" y2="-311.9688">
			<stop  offset="0" style="stop-color:#08A0D2"/>
			<stop  offset="1" style="stop-color:#0ABAA1"/>
		</linearGradient>
		<path id="Fill-55" class="st0" d="M-168.4-248l-2.4-3c-1.6-2.2-43-50.6-43-79.5c0-25.2,20.6-45.4,45.4-45.4s45.4,20.6,45.4,45.4
			c0,28.9-41.4,77.6-43,79.5L-168.4-248L-168.4-248z M-168.4-369.7c-21.6,0-38.9,17.6-38.9,38.9c0,22.7,30,61.4,38.9,72.5
			c8.9-11.1,38.9-49.5,38.9-72.5C-129.5-352.1-146.8-369.7-168.4-369.7L-168.4-369.7z"/>
		<linearGradient id="Fill-56_1_" gradientUnits="userSpaceOnUse" x1="-185.7116" y1="-330.4967" x2="-151.0901" y2="-330.4967">
			<stop  offset="0" style="stop-color:#08A0D2"/>
			<stop  offset="1" style="stop-color:#0ABAA1"/>
		</linearGradient>
		<path id="Fill-56" class="st1" d="M-168.4-313.2c-9.5,0-17.3-7.8-17.3-17.3c0-9.5,7.8-17.3,17.3-17.3c9.5,0,17.3,7.8,17.3,17.3
			C-151.1-321-158.9-313.2-168.4-313.2L-168.4-313.2z M-168.4-341.3c-6,0-10.8,4.9-10.8,10.8c0,6,4.9,10.8,10.8,10.8
			c6,0,10.8-4.9,10.8-10.8C-157.6-336.4-162.5-341.3-168.4-341.3L-168.4-341.3z"/>
	</g>
</g>
</svg>
