<?xml version="1.0" encoding="utf-8"?>
<!-- Generator: Adobe Illustrator 22.1.0, SVG Export Plug-In . SVG Version: 6.00 Build 0)  -->
<svg version="1.1" id="Слой_1" xmlns="http://www.w3.org/2000/svg" xmlns:xlink="http://www.w3.org/1999/xlink" x="0px" y="0px"
	 viewBox="0 0 21 20" style="enable-background:new 0 0 21 20;" xml:space="preserve">
<style type="text/css">
	.st0{fill:#00A0E3;}
</style>
<path class="st0" d="M16,0.6C15.6,0.2,15.2,0,14.6,0h-8c-0.5,0-1,0.2-1.4,0.6S4.6,1.5,4.6,2v16c0,0.5,0.2,1,0.6,1.4S6.1,20,6.6,20h8
	c0.5,0,1-0.2,1.4-0.6s0.6-0.9,0.6-1.4V2C16.6,1.5,16.4,1,16,0.6z M9.4,2h2.5c0.2,0,0.2,0.1,0.2,0.3S12,2.6,11.9,2.6H9.4
	c-0.2,0-0.3-0.1-0.3-0.3C9.1,2.1,9.2,2,9.4,2z M11.5,18.9c-0.2,0.2-0.5,0.4-0.9,0.4c-0.3,0-0.6-0.1-0.9-0.4
	c-0.2-0.2-0.4-0.5-0.4-0.9c0-0.3,0.1-0.6,0.4-0.9c0.2-0.2,0.5-0.4,0.9-0.4c0.3,0,0.6,0.1,0.9,0.4c0.2,0.2,0.4,0.5,0.4,0.9
	C11.9,18.3,11.8,18.6,11.5,18.9z M15.1,15.5c0,0.1,0,0.3-0.1,0.4C14.9,16,14.8,16,14.6,16h-8c-0.1,0-0.3,0-0.4-0.1s-0.1-0.2-0.1-0.4
	v-11c0-0.1,0-0.3,0.1-0.4C6.4,4,6.5,4,6.6,4h8c0.1,0,0.3,0,0.4,0.1c0.1,0.1,0.1,0.2,0.1,0.4V15.5L15.1,15.5L15.1,15.5z"/>
</svg>
