<?xml version="1.0" encoding="utf-8"?>
<!-- Generator: Adobe Illustrator 22.1.0, SVG Export Plug-In . SVG Version: 6.00 Build 0)  -->
<svg version="1.1" id="Слой_1" xmlns="http://www.w3.org/2000/svg" xmlns:xlink="http://www.w3.org/1999/xlink" x="0px" y="0px"
	 viewBox="0 0 16 16" style="enable-background:new 0 0 16 16;" xml:space="preserve">
<style type="text/css">
	.st0{fill:#233C56;}
</style>
<path class="st0" d="M13.2,16c-0.1,0-0.1,0-0.2,0c-2.3-0.2-4.4-1-6.3-2.3c-1.8-1.1-3.3-2.6-4.4-4.4C1,7.4,0.2,5.2,0,3
	C0,2.4,0.1,1.9,0.5,1.5C0.8,1,1.3,0.8,1.9,0.7c0.1,0,0.1,0,0.2,0h2.1c0,0,0,0,0,0c1,0,1.9,0.8,2.1,1.8c0.1,0.6,0.2,1.2,0.5,1.8
	C7,5.1,6.8,5.9,6.3,6.5L5.7,7c0.8,1.3,1.9,2.4,3.2,3.2l0.5-0.5C10,9.1,10.9,9,11.7,9.2c0.6,0.2,1.2,0.4,1.8,0.4
	c1.1,0.1,1.8,1.1,1.8,2.1v2.1c0,0.6-0.2,1.1-0.6,1.5C14.3,15.8,13.7,16,13.2,16C13.2,16,13.2,16,13.2,16z M4.2,2.1
	C4.2,2.1,4.2,2.1,4.2,2.1H2.1c-0.2,0-0.4,0.1-0.5,0.3C1.4,2.5,1.4,2.7,1.4,2.9c0.2,2,0.9,4,2,5.7c1,1.6,2.4,3,4,4
	c1.7,1.1,3.7,1.8,5.7,2c0.2,0,0.4-0.1,0.5-0.2c0.1-0.1,0.2-0.3,0.2-0.5v-2.1c0,0,0,0,0,0c0-0.4-0.2-0.7-0.6-0.7
	c-0.7-0.1-1.4-0.3-2.1-0.5c-0.3-0.1-0.5,0-0.7,0.2l-0.9,0.9c-0.2,0.2-0.6,0.3-0.8,0.1c-1.9-1.1-3.4-2.6-4.4-4.4
	C4.1,7,4.2,6.6,4.4,6.4l0.9-0.9c0.2-0.2,0.3-0.5,0.2-0.7C5.2,4.1,5,3.4,4.9,2.7C4.8,2.4,4.5,2.1,4.2,2.1z M12.5,6.9
	c-0.3,0-0.6-0.2-0.7-0.6c-0.2-1.1-1.1-2-2.2-2.2C9.2,4.1,9,3.7,9,3.4C9.1,3,9.5,2.7,9.9,2.8c1.7,0.3,3,1.6,3.3,3.3
	c0.1,0.4-0.2,0.7-0.6,0.8C12.6,6.9,12.5,6.9,12.5,6.9z M15.3,6.9c-0.4,0-0.7-0.3-0.7-0.6c-0.3-2.6-2.3-4.6-4.9-4.9
	C9.3,1.3,9,1,9,0.6C9.1,0.2,9.4,0,9.8,0c3.3,0.4,5.8,2.9,6.2,6.2C16,6.5,15.7,6.9,15.3,6.9C15.3,6.9,15.3,6.9,15.3,6.9z"/>
</svg>
