<?xml version="1.0" encoding="UTF-8"?>
<!-- Generator: Adobe Illustrator 22.1.0, SVG Export Plug-In . SVG Version: 6.00 Build 0)  -->
<svg version="1.1" id="Слой_1" xmlns:sketch="http://www.bohemiancoding.com/sketch/ns" xmlns="http://www.w3.org/2000/svg" xmlns:xlink="http://www.w3.org/1999/xlink" x="0px" y="0px" viewBox="0 0 20 20" style="enable-background:new 0 0 20 20;" xml:space="preserve">
<style type="text/css">
	.st0{fill:#ccc;}
</style>
<title/>
<desc/>
<polygon class="st0" points="9,15 11,15 11,9 9,9 9,15 "/>
<polygon class="st0" points="9,7 11,7 11,5 9,5 9,7 "/>
<g id="Layer_1">
</g>
<path class="st0" d="M10,20c5.5,0,10-4.5,10-10S15.5,0,10,0S0,4.5,0,10C0,15.5,4.5,20,10,20z M10,1.4c4.7,0,8.5,3.8,8.5,8.5  s-3.8,8.5-8.5,8.5S1.4,14.7,1.4,10C1.4,5.3,5.3,1.4,10,1.4z"/>
</svg>