<?xml version="1.0" encoding="utf-8"?>
<!-- Generator: Adobe Illustrator 22.1.0, SVG Export Plug-In . SVG Version: 6.00 Build 0)  -->
<svg version="1.1" id="Слой_1" xmlns="http://www.w3.org/2000/svg" xmlns:xlink="http://www.w3.org/1999/xlink" x="0px" y="0px"
	 viewBox="0 0 31.5 21" style="enable-background:new 0 0 31.5 21;" xml:space="preserve">
<style type="text/css">
	.st0{fill:#EE1C25;}
	.st1{fill:#FFFF00;}
</style>
<rect class="st0" width="31.5" height="21"/>
<polygon class="st1" points="6.4,5.6 8.2,4.3 6,4.3 5.3,2.1 4.5,4.3 2.3,4.3 4.1,5.6 3.4,7.8 5.3,6.5 7.1,7.8 "/>
<g transform="translate(10,2) rotate(23.036243)">
	<path id="s_1_" class="st1" d="M10.9,1.1l-0.2,2l-1-1.7l1.8,0.8L9.6,2.6L10.9,1.1z"/>
</g>
<g transform="translate(12,4) rotate(45.869898)">
	<path id="s_2_" class="st1" d="M13.4,3.5l-0.9,1.8l-0.3-2l1.4,1.4l-2-0.3L13.4,3.5z"/>
</g>
<g transform="translate(12,7) rotate(69.945396)">
	<path id="s_3_" class="st1" d="M13.6,7L12,8.2l0.5-1.9l0.7,1.9l-1.7-1.1L13.6,7z"/>
</g>
<g transform="translate(10,9) rotate(20.659808)">
	<path id="s_4_" class="st1" d="M10.9,8.5l-0.1,2L9.7,8.8l1.9,0.7L9.6,10L10.9,8.5z"/>
</g>
</svg>
