<?xml version="1.0" encoding="utf-8"?>
<!-- Generator: Adobe Illustrator 22.1.0, SVG Export Plug-In . SVG Version: 6.00 Build 0)  -->
<svg version="1.1" id="Слой_1" xmlns="http://www.w3.org/2000/svg" xmlns:xlink="http://www.w3.org/1999/xlink" x="0px" y="0px"
	 viewBox="0 0 30 30" style="enable-background:new 0 0 30 30;" xml:space="preserve">
<style type="text/css">
	.st0{fill:#3E3F52;}
	.st1{fill:#FFFFFF;}
</style>
<g id="g58" transform="translate(245.0344,124.9999)">
	<path id="path60" class="st0" d="M-218-110c0,6.6-9.8,14.3-16.4,14.3l-1.1-0.4c-4-1.9-6.4-9.2-6.4-13.9c0-6.6,5.4-12,12-12
		S-218-116.6-218-110"/>
</g>
<g id="g62" transform="translate(123.0422,246.9921)">
	<path id="path64" class="st1" d="M-108-247c-8.3,0-15,6.7-15,15c0,6.4,4,11.8,9.5,14c-0.1-1.2-0.2-3,0.1-4.3
		c0.3-1.2,1.8-7.5,1.8-7.5s-0.4-0.9-0.4-2.2c0-2.1,1.2-3.6,2.7-3.6c1.3,0,1.9,1,1.9,2.1c0,1.3-0.8,3.2-1.2,5
		c-0.4,1.5,0.7,2.7,2.2,2.7c2.7,0,4.7-2.8,4.7-6.9c0-3.6-2.6-6.1-6.3-6.1c-4.3,0-6.8,3.2-6.8,6.5c0,1.3,0.5,2.7,1.1,3.4
		c0.1,0.1,0.1,0.3,0.1,0.4c-0.1,0.5-0.4,1.5-0.4,1.7c-0.1,0.3-0.2,0.3-0.5,0.2c-1.9-0.9-3-3.6-3-5.8c0-4.7,3.4-9.1,9.9-9.1
		c5.2,0,9.2,3.7,9.2,8.7c0,5.2-3.3,9.3-7.8,9.3c-1.5,0-2.9-0.8-3.4-1.7c0,0-0.8,2.9-0.9,3.6c-0.3,1.3-1.3,2.9-1.9,3.9
		c1.4,0.4,2.9,0.7,4.4,0.7c8.3,0,15-6.7,15-15S-99.8-247-108-247"/>
</g>
</svg>
