<svg width="18" height="18" viewBox="0 0 18 18" fill="none" xmlns="http://www.w3.org/2000/svg">
<g clip-path="url(#clip0_103_534)">
<path d="M11.5 18C9.7 18 8 17.5 6.4 16.5C4.8 15.5 3.8 14.1 3.2 12.2H0V10H2.8C2.8 9.7 2.7 9.4 2.7 9.1C2.7 8.8 2.7 8.5 2.8 8.1H0V5.8H3.2C3.8 4 4.9 2.6 6.4 1.6C7.9 0.6 9.6 0 11.5 0C12.7 0 13.9 0.2 14.9 0.7C15.9 1.2 16.9 1.8 17.8 2.6L16.2 4.2C15.5 3.5 14.8 3 14 2.7C13.2 2.4 12.4 2.2 11.5 2.2C10.3 2.2 9.1 2.5 8 3.2C6.9 3.9 6.1 4.8 5.7 5.8H12V8H5C5 8.4 5 8.6 5 8.9C5 9.2 5 9.5 5 10H12V12.2H5.6C6.1 13.4 6.9 14.2 8 14.9C9.1 15.5 10.3 15.9 11.5 15.9C12.3 15.9 13.2 15.7 14 15.4C14.8 15.1 15.6 14.6 16.3 14L17.9 15.5C17 16.2 16 16.9 15 17.3C13.9 17.8 12.7 18 11.5 18Z" fill="#3E3F52"/>
</g>
<defs>
<clipPath id="clip0_103_534">
<rect width="17.8" height="18" fill="white"/>
</clipPath>
</defs>
</svg>
