<svg width="14" height="14" viewBox="0 0 14 14" fill="none" xmlns="http://www.w3.org/2000/svg">
<g clip-path="url(#clip0_103_537)">
<path d="M5.49995 10.1L3.79995 11.8V2.80001V2.70001C3.79995 2.40001 3.49995 2.20001 3.19995 2.20001H3.09995C2.79995 2.20001 2.59995 2.50001 2.59995 2.80001V11.8L0.899951 10.1C0.699951 9.90001 0.399951 9.90001 0.199951 10.1L0.0999512 10.2C-0.100049 10.4 -0.100049 10.7 0.0999512 10.9L3.19995 14L6.19995 11C6.39995 10.8 6.39995 10.5 6.19995 10.3C5.99995 10 5.69995 10 5.49995 10.1Z" fill="#3E3F52"/>
<path d="M13.3 3.1L10.2 0L7.20005 3C7.00005 3.3 7.00005 3.6 7.20005 3.8C7.40005 4 7.70005 4 7.90005 3.9L9.60005 2.2V11.2V11.3C9.60005 11.6 9.90005 11.8 10.2 11.8H10.3C10.6 11.8 10.8 11.5 10.8 11.2V2.2L12.5 3.9C12.7 4 13 4 13.2 3.9L13.3 3.8C13.5 3.6 13.5 3.3 13.3 3.1Z" fill="#3E3F52"/>
</g>
<defs>
<clipPath id="clip0_103_537">
<rect width="13.4" height="14" fill="white"/>
</clipPath>
</defs>
</svg>
