<?xml version="1.0" encoding="utf-8"?>
<!-- Generator: Adobe Illustrator 22.1.0, SVG Export Plug-In . SVG Version: 6.00 Build 0)  -->
<svg version="1.1" id="Слой_1" xmlns="http://www.w3.org/2000/svg" xmlns:xlink="http://www.w3.org/1999/xlink" x="0px" y="0px"
	 viewBox="0 0 42 78" style="enable-background:new 0 0 42 78;" xml:space="preserve">
<style type="text/css">
	.st0{fill:#E8394F;}
	.st1{fill:#FFFFFF;}
</style>
<rect class="st0" width="42" height="78"/>
<g>
	<path class="st1" d="M24.7,51.5v1.7l-1.5,0.5v3l1.5,0.5V59l-8.5-3.1v-1.3L24.7,51.5z M21.8,54.2l-3.1,1l3.1,1.1V54.2z"/>
	<path class="st1" d="M24.7,43.7v2l-4.5,3L16.2,46v-2l4,2.9L24.7,43.7z M24.7,48.7v1.7h-8.5v-1.7H24.7z"/>
	<path class="st1" d="M26.6,35.5v1.6h-1.9v5.6h-8.5v-1.7h7.1v-2.9h-7.1v-1.7h7.1v-1H26.6z"/>
	<path class="st1" d="M24.7,27.7v1.7h-5.5l5.5,3.3v1.5h-8.5v-1.7h5.5l-5.5-3.3v-1.5H24.7z"/>
	<path class="st1" d="M21.5,23l3.2,1.4v2l-3.6-1.8c-0.2,0.5-0.5,0.8-0.9,1.1c-0.4,0.3-0.9,0.4-1.4,0.4c-0.8,0-1.5-0.3-1.9-0.8
		s-0.7-1.2-0.7-2v-3.3h8.5v1.7h-3.2V23z M20,21.6h-2.4v1.6c0,0.4,0.1,0.7,0.3,0.9c0.2,0.2,0.5,0.3,0.9,0.3s0.6-0.1,0.9-0.3
		s0.3-0.5,0.3-0.9V21.6z"/>
</g>
</svg>
