<svg width="14" height="18" viewBox="0 0 14 18" fill="none" xmlns="http://www.w3.org/2000/svg">
<g clip-path="url(#clip0_103_530)">
<path d="M2.1 18V15H0V12.8H2.1V10.6H0V8.4H2.1V0H8.6C10.1 0 11.3 0.5 12.4 1.6C13.4 2.6 13.9 3.9 13.9 5.4C13.9 6.9 13.4 8.1 12.4 9.2C11.4 10.2 10.1 10.7 8.6 10.7H4.3V12.9H8.3V15H4.3V18H2.1ZM4.3 8.4H8.6C9.5 8.4 10.2 8.1 10.8 7.5C11.4 6.9 11.7 6.2 11.7 5.3C11.7 4.4 11.4 3.7 10.8 3.1C10.2 2.5 9.5 2.2 8.6 2.2H4.3V8.4Z" fill="white"/>
</g>
<defs>
<clipPath id="clip0_103_530">
<rect width="13.9" height="18" fill="white"/>
</clipPath>
</defs>
</svg>
