<?xml version="1.0" encoding="utf-8"?>
<!-- Generator: Adobe Illustrator 22.1.0, SVG Export Plug-In . SVG Version: 6.00 Build 0)  -->
<svg version="1.1" id="Слой_1" xmlns="http://www.w3.org/2000/svg" xmlns:xlink="http://www.w3.org/1999/xlink" x="0px" y="0px"
	 viewBox="0 0 495.6 67.9" style="enable-background:new 0 0 495.6 67.9;" xml:space="preserve">
<style type="text/css">
	.st0{fill:#000;}
	.st1{fill:url(#SVGID_1_);}
	.st2{fill:url(#SVGID_2_);}
	.st3{fill:url(#SVGID_3_);}
	.st4{fill:url(#SVGID_4_);}
	.st5{fill:url(#SVGID_5_);}
	.st6{fill:url(#SVGID_6_);}
</style>
<path class="st0" d="M74.5,37.5c5.6-0.1,11.1,3.4,11.1,10.7c0,3.8-3.2,7-7.2,7s-7.2-3.1-7.2-7c0-1.5,0.3-2.9,1.8-2.9
	s2.1,1.4,2.1,2.8c0,4.7,6.7,3.6,6.7-0.9c0-3.2-2.9-7.1-7.7-6.8c-3.3,0-6,2.6-6,5.8c0,9.7,0,11.4,0,21.1h-1.5h-1.5c0-8.4,0-11.6,0-20
	c0-1.2-1-2.2-2.2-2.2s-2.2,1-2.2,2.1c0,0.3,0.3,0.6,0.7,0.6s0.7-0.3,0.7-0.6c0-0.5,0.4-1,1-1c0.5,0,1,0.4,1,1c0,1.4-1.2,2.6-2.6,2.6
	c-1.5,0-2.6-1.2-2.6-2.6c0-3.7,4-4.8,6.4-3.4C66.4,39.4,70.7,37.6,74.5,37.5L74.5,37.5z"/>
<path class="st0" d="M4.1,63.4c1.1,1.1,2.4,1.7,3.8,1.7c1,0,1.8-0.2,2.4-0.6c0.6-0.4,0.9-0.9,0.9-1.6c0-0.7-0.3-1.2-0.9-1.6
	c-0.6-0.4-1.8-0.6-3.6-0.6H5.8V58h0.9c1.1,0,1.9-0.2,2.5-0.6C9.8,57,10,56.5,10,55.9s-0.2-1-0.7-1.3C8.9,54.2,8.2,54,7.5,54
	c-0.9,0-1.9,0.3-2.9,1l-2.4-2c1.3-0.9,2.4-1.4,3.3-1.5c0.9-0.2,1.7-0.3,2.4-0.3c1.8,0,3.3,0.4,4.5,1.1c1.2,0.8,1.8,1.8,1.8,3
	c0,0.6-0.1,1.1-0.4,1.7c-0.3,0.5-1,1.1-2.3,1.7c2.5,0.8,3.8,2.2,3.8,4.2c0,1.5-0.7,2.7-2,3.5c-1.4,0.9-3.1,1.3-5.2,1.3
	c-1.3,0-2.5-0.2-3.6-0.5C3.4,67,2.2,66.3,1,65.1L4.1,63.4L4.1,63.4z M26.6,51.7h3.2L36,67.5h-3.2l-1.3-3.3h-6.7l-1.3,3.3h-3.2
	L26.6,51.7z M28.2,55.9L26,61.3h4.3L28.2,55.9z M47.7,63.9l-6-12.2h3.7l4,8.8l3.3-8.8H56L51.4,63c-0.8,1.9-1.6,3.2-2.5,3.9
	c-0.9,0.7-1.9,1-2.9,1c-1.7,0-3.2-0.8-4.7-2.3l2.1-2c0.9,0.9,1.7,1.4,2.5,1.4c0.4,0,0.7-0.1,0.9-0.2C47.1,64.6,47.3,64.3,47.7,63.9
	L47.7,63.9z"/>
<path class="st0" d="M87.9,51.7H91l6.3,15.8h-3.2l-1.3-3.3h-6.7l-1.3,3.3h-3.2L87.9,51.7z M89.5,55.9l-2.2,5.4h4.3L89.5,55.9z
	 M113.4,67.5l-4.5-11.6l-4.6,11.6H101l6.3-15.8h3.2l6.3,15.8H113.4z M121.8,67.5V51.7h3.1v6h0.7c1.3,0,2.4,0.1,3.2,0.4
	c0.9,0.3,1.6,0.8,2.2,1.7c0.6,0.8,0.9,1.8,0.9,2.9c0,1.1-0.3,2-0.8,2.8s-1.2,1.3-1.9,1.6c-0.7,0.3-1.7,0.5-2.9,0.5h-4.5V67.5z
	 M124.9,60.4v4.3h0.8c1.3,0,2.1-0.2,2.6-0.5c0.4-0.3,0.7-0.8,0.7-1.6c0-1.5-1.1-2.2-3.4-2.2L124.9,60.4L124.9,60.4z M136.9,51.7h8.9
	v3H140v2.9h5.8v2.9H140v4.2h5.8v3h-8.9L136.9,51.7L136.9,51.7z"/>
<linearGradient id="SVGID_1_" gradientUnits="userSpaceOnUse" x1="3191.0586" y1="24336.0234" x2="5643.9785" y2="22253.6348" gradientTransform="matrix(2.834646e-02 0 0 2.834646e-02 -90.9333 -638.6599)">
	<stop  offset="0" style="stop-color:#D9DADA"/>
	<stop  offset="1" style="stop-color:#FEFEFE"/>
</linearGradient>
<path class="st1" d="M15.9,48H0C15.5,24,33.8,9.8,53.6,0c3.6,1.9,4.5,2.4,8,4.2C44.8,13.8,29.3,27.3,15.9,48L15.9,48z"/>
<linearGradient id="SVGID_2_" gradientUnits="userSpaceOnUse" x1="6020.1079" y1="23301.6816" x2="6719.5278" y2="24280.1016" gradientTransform="matrix(2.834646e-02 0 0 2.834646e-02 -90.9333 -638.6599)">
	<stop  offset="0" style="stop-color:#009846"/>
	<stop  offset="1" style="stop-color:#0A5F2F"/>
</linearGradient>
<path class="st2" d="M74.2,26.5c5.7,6,11.8,13.5,17,21.5H107c-7.5-11.7-15.8-21.1-24.5-28.7L74.2,26.5z"/>
<linearGradient id="SVGID_3_" gradientUnits="userSpaceOnUse" x1="5840.0776" y1="22681.9297" x2="3832.2375" y2="24353.2188" gradientTransform="matrix(2.834646e-02 0 0 2.834646e-02 -90.9333 -638.6599)">
	<stop  offset="0" style="stop-color:#0060AA"/>
	<stop  offset="1" style="stop-color:#0D3E66"/>
</linearGradient>
<path class="st3" d="M35.1,48H19.2C34.7,24,53,9.8,72.7,0c3.6,1.9,4.5,2.4,8,4.2C64,13.8,48.4,27.3,35.1,48L35.1,48z"/>
<linearGradient id="SVGID_4_" gradientUnits="userSpaceOnUse" x1="7576.2637" y1="24355.1445" x2="5829.8936" y2="22552.3145" gradientTransform="matrix(2.834646e-02 0 0 2.834646e-02 -90.9333 -638.6599)">
	<stop  offset="0" style="stop-color:#EBECEC"/>
	<stop  offset="1" style="stop-color:#FEFEFE"/>
</linearGradient>
<path class="st4" d="M84,17.8c9.4,7.9,18.2,17.7,26.3,30.2h15.9C116,32.1,104.5,20.5,92.1,11.7L84,17.8z"/>
<linearGradient id="SVGID_5_" gradientUnits="userSpaceOnUse" x1="6456.085" y1="22596.3945" x2="4578.6953" y2="24373.4531" gradientTransform="matrix(2.834646e-02 0 0 2.834646e-02 -90.9333 -638.6599)">
	<stop  offset="0" style="stop-color:#E45238"/>
	<stop  offset="1" style="stop-color:#B92F22"/>
</linearGradient>
<path class="st5" d="M54.3,48H38.4C53.8,24,72.2,9.8,91.9,0c3.6,1.9,4.5,2.4,8,4.2C83.2,13.8,67.6,27.3,54.3,48L54.3,48z"/>
<linearGradient id="SVGID_6_" gradientUnits="userSpaceOnUse" x1="7019.709" y1="23027.6133" x2="8821.9795" y2="25310.6133" gradientTransform="matrix(2.834646e-02 0 0 2.834646e-02 -90.9333 -638.6599)">
	<stop  offset="0" style="stop-color:#00A0E3"/>
	<stop  offset="1" style="stop-color:#0060AA"/>
</linearGradient>
<path class="st6" d="M93.6,10.4c13.1,9.1,25.1,20.8,35.9,37.5h15.9c-12.9-20-27.8-33.2-43.8-42.7C99.1,6.8,96.3,8.5,93.6,10.4z"/>
<path class="st0" d="M166.9,23.4c0.7-0.5,1.1-1.2,1.1-2s-0.3-1.4-0.8-1.9s-1.2-0.8-2-0.8h-4v9.8h4.3c0.8,0,1.5-0.3,2-0.8
	c0.6-0.5,0.8-1.2,0.8-2C168.4,24.7,167.8,23.9,166.9,23.4L166.9,23.4z M165.2,20c0.4,0,0.7,0.2,1,0.4c0.3,0.3,0.4,0.6,0.4,1
	c0,0.8-0.6,1.5-1.5,1.5h-2.6v-3h2.7V20z M162.6,27.3v-3.2h3c0.4,0,0.8,0.2,1.1,0.5s0.5,0.7,0.5,1.1c0,0.9-0.7,1.6-1.6,1.6H162.6
	L162.6,27.3z M174.6,28.7c0.9,0,1.7-0.2,2.5-0.6s1.4-1,1.8-1.7l-1.1-0.6c-0.6,1.1-1.8,1.8-3.1,1.8c-1.1,0-2.1-0.4-2.8-1.1
	s-1.1-1.6-1.1-2.7s0.4-2,1.1-2.7c0.7-0.7,1.7-1.1,2.8-1.1c1.4,0,2.6,0.7,3.1,1.8l1.1-0.7c-0.8-1.4-2.5-2.4-4.3-2.4
	c-1.5,0-2.7,0.5-3.7,1.5s-1.5,2.2-1.5,3.6s0.5,2.6,1.5,3.6C171.9,28.2,173.1,28.7,174.6,28.7L174.6,28.7z M181.7,24.2h4.2V23h-4.2
	v-3h4.5v-1.2h-5.8v9.8h5.9v-1.2h-4.6L181.7,24.2L181.7,24.2z M187.9,18.7v9.8h1.3V25h2.3c0.9,0,1.7-0.3,2.3-0.9s0.9-1.4,0.9-2.2
	c0-0.9-0.3-1.6-0.9-2.2c-0.6-0.6-1.4-0.9-2.3-0.9L187.9,18.7L187.9,18.7z M189.2,23.8V20h2.3c1.1,0,1.9,0.8,1.9,1.9
	c0,0.5-0.2,1-0.5,1.4c-0.4,0.4-0.8,0.5-1.4,0.5H189.2L189.2,23.8z M195.7,23.6c0,1.4,0.5,2.6,1.5,3.6s2.2,1.5,3.6,1.5
	c1.4,0,2.6-0.5,3.6-1.5s1.5-2.2,1.5-3.6s-0.5-2.6-1.5-3.6s-2.2-1.5-3.6-1.5c-1.4,0-2.6,0.5-3.6,1.5S195.7,22.2,195.7,23.6z
	 M204.6,23.6c0,1.1-0.4,2-1.1,2.7c-0.7,0.7-1.6,1.1-2.7,1.1c-1.1,0-2-0.4-2.7-1.1s-1.1-1.6-1.1-2.7s0.4-2,1.1-2.7
	c0.7-0.7,1.6-1.1,2.7-1.1c1.1,0,2,0.4,2.7,1.1S204.6,22.5,204.6,23.6z M212.2,28.7c0.9,0,1.7-0.2,2.5-0.6s1.4-1,1.8-1.7l-1.1-0.6
	c-0.6,1.1-1.8,1.8-3.1,1.8c-1.1,0-2.1-0.4-2.8-1.1s-1.1-1.6-1.1-2.7s0.4-2,1.1-2.7c0.7-0.7,1.7-1.1,2.8-1.1c1.4,0,2.6,0.7,3.1,1.8
	l1.1-0.7c-0.8-1.4-2.5-2.4-4.3-2.4c-1.5,0-2.7,0.5-3.7,1.5s-1.5,2.2-1.5,3.6s0.5,2.6,1.5,3.6C209.4,28.2,210.7,28.7,212.2,28.7
	L212.2,28.7z M222.6,28.7c0.9,0,1.7-0.2,2.5-0.6s1.4-1,1.8-1.7l-1.1-0.6c-0.6,1.1-1.8,1.8-3.1,1.8c-1.1,0-2.1-0.4-2.8-1.1
	s-1.1-1.6-1.1-2.7s0.4-2,1.1-2.7c0.7-0.7,1.7-1.1,2.8-1.1c1.4,0,2.6,0.7,3.1,1.8l1.1-0.7c-0.8-1.4-2.5-2.4-4.3-2.4
	c-1.5,0-2.7,0.5-3.7,1.5s-1.5,2.2-1.5,3.6s0.5,2.6,1.5,3.6C219.8,28.2,221.1,28.7,222.6,28.7L222.6,28.7z M235.8,28.5v-9.8h-1.1
	l-5.1,7.3v-7.3h-1.3v9.8h1.1l5.1-7.3v7.3H235.8L235.8,28.5z M243.6,17.7v-1.1h-3.8v1.1H243.6z M245.4,28.5v-9.8h-1.1l-5.1,7.3v-7.3
	h-1.3v9.8h1.1l5.1-7.3v7.3H245.4z M252.2,28.7c0.9,0,1.7-0.2,2.5-0.6s1.4-1,1.8-1.7l-1.1-0.6c-0.6,1.1-1.8,1.8-3.1,1.8
	c-1.1,0-2.1-0.4-2.8-1.1s-1.1-1.6-1.1-2.7s0.4-2,1.1-2.7c0.7-0.7,1.7-1.1,2.8-1.1c1.4,0,2.6,0.7,3.1,1.8l1.1-0.7
	c-0.8-1.4-2.5-2.4-4.3-2.4c-1.5,0-2.7,0.5-3.7,1.5s-1.5,2.2-1.5,3.6s0.5,2.6,1.5,3.6C249.4,28.2,250.7,28.7,252.2,28.7L252.2,28.7z
	 M260.6,23.5l4.4-4.7h-1.6l-4.1,4.4v-4.4H258v9.8h1.3v-4.7l4.3,4.7h1.6L260.6,23.5L260.6,23.5z M273.8,28.5v-9.8h-1.1l-5.1,7.3v-7.3
	h-1.3v9.8h1.1l5.1-7.3v7.3H273.8z M281.6,17.7v-1.1h-3.8v1.1H281.6z M283.4,28.5v-9.8h-1.1l-5.1,7.3v-7.3h-1.3v9.8h1.1l5.1-7.3v7.3
	H283.4z M296.5,28.5v-9.8h-1.1l-5.1,7.3v-7.3H289v9.8h1.1l5.1-7.3v7.3H296.5L296.5,28.5z M304.8,22.9H300v-4.1h-1.3v9.8h1.3v-4.4
	h4.8v4.4h1.3v-9.8h-1.3V22.9z M313.9,23.4c0.7-0.5,1.1-1.2,1.1-2s-0.3-1.4-0.8-1.9s-1.2-0.8-2-0.8h-4v9.8h4.3c0.8,0,1.5-0.3,2-0.8
	c0.6-0.5,0.8-1.2,0.8-2C315.4,24.7,314.8,23.9,313.9,23.4L313.9,23.4z M312.2,20c0.4,0,0.7,0.2,1,0.4c0.3,0.3,0.4,0.6,0.4,1
	c0,0.8-0.6,1.5-1.5,1.5h-2.6v-3h2.7V20z M309.5,27.3v-3.2h3c0.4,0,0.8,0.2,1.1,0.5c0.3,0.3,0.5,0.7,0.5,1.1c0,0.9-0.7,1.6-1.6,1.6
	H309.5L309.5,27.3z M318.2,24.2h4.2V23h-4.2v-3h4.5v-1.2h-5.8v9.8h5.9v-1.2h-4.6V24.2L318.2,24.2z M329,28.7c0.9,0,1.7-0.2,2.5-0.6
	s1.4-1,1.8-1.7l-1.1-0.6c-0.6,1.1-1.8,1.8-3.1,1.8c-1.1,0-2.1-0.4-2.8-1.1c-0.7-0.7-1.1-1.6-1.1-2.7s0.4-2,1.1-2.7s1.7-1.1,2.8-1.1
	c1.4,0,2.6,0.7,3.1,1.8l1.1-0.7c-0.8-1.4-2.5-2.4-4.3-2.4c-1.5,0-2.7,0.5-3.7,1.5s-1.5,2.2-1.5,3.6s0.5,2.6,1.5,3.6
	C326.3,28.2,327.5,28.7,329,28.7L329,28.7z M333.9,18.7V20h2.9v8.5h1.3V20h2.9v-1.2L333.9,18.7L333.9,18.7z M349.8,28.5v-9.8h-1.1
	l-5.1,7.3v-7.3h-1.3v9.8h1.1l5.1-7.3v7.3H349.8z M359.1,18.7h-1.3v8.5h-4.6v-8.5h-1.3v9.8h6.9v1.9h1.3v-3.1H359v-8.6H359.1z
	 M369.1,28.5v-9.8H368l-5,7.3v-7.3h-1.3v9.8h1.1l5.1-7.3v7.3H369.1L369.1,28.5z M370.7,23.6c0,1.4,0.5,2.6,1.5,3.6s2.2,1.5,3.6,1.5
	s2.6-0.5,3.6-1.5s1.5-2.2,1.5-3.6s-0.5-2.6-1.5-3.6s-2.2-1.5-3.6-1.5s-2.6,0.5-3.6,1.5S370.7,22.2,370.7,23.6z M379.7,23.6
	c0,1.1-0.4,2-1.1,2.7s-1.6,1.1-2.7,1.1s-2-0.4-2.7-1.1s-1.1-1.6-1.1-2.7s0.4-2,1.1-2.7s1.6-1.1,2.7-1.1s2,0.4,2.7,1.1
	C379.3,21.6,379.7,22.5,379.7,23.6z M388.7,22.9h-4.8v-4.1h-1.3v9.8h1.3v-4.4h4.8v4.4h1.3v-9.8h-1.3V22.9z M398.3,22.9h-4.8v-4.1
	h-1.3v9.8h1.3v-4.4h4.8v4.4h1.3v-9.8h-1.3V22.9z M405.3,28.5c0.9,0,1.7-0.3,2.3-0.9c0.6-0.6,0.9-1.4,0.9-2.2c0-0.9-0.3-1.6-0.9-2.2
	s-1.4-0.9-2.3-0.9H403v-3.5h-1.3v9.8L405.3,28.5L405.3,28.5z M410.8,28.5v-9.8h-1.3v9.8H410.8z M403,23.4h2.3c1.1,0,1.9,0.8,1.9,1.9
	s-0.8,1.9-1.9,1.9H403V23.4z M418.6,17.7v-1.1h-3.8v1.1H418.6z M420.4,28.5v-9.8h-1.1l-5.1,7.3v-7.3h-1.3v9.8h1.1l5.1-7.3v7.3H420.4
	z M430.7,28.7c0.9,0,1.7-0.2,2.5-0.6s1.4-1,1.8-1.7l-1.1-0.6c-0.6,1.1-1.8,1.8-3.1,1.8c-1.1,0-2.1-0.4-2.8-1.1
	c-0.7-0.7-1.1-1.6-1.1-2.7s0.4-2,1.1-2.7s1.7-1.1,2.8-1.1c1.4,0,2.6,0.7,3.1,1.8l1.1-0.7c-0.8-1.4-2.5-2.4-4.3-2.4
	c-1.5,0-2.7,0.5-3.7,1.5s-1.5,2.2-1.5,3.6s0.5,2.6,1.5,3.6C428,28.2,429.2,28.7,430.7,28.7L430.7,28.7z M444.3,28.5l-3.7-9.8h-1.5
	l-3.7,9.8h1.4l0.8-2.2h4.5l0.8,2.2H444.3L444.3,28.5z M439.9,20.3l1.8,4.8h-3.6L439.9,20.3z M446.8,22.6V20h4.6v-1.2h-5.9v9.8h3.7
	c0.9,0,1.6-0.3,2.2-0.9s0.9-1.3,0.9-2.1c0-0.8-0.3-1.5-0.9-2.1s-1.3-0.9-2.2-0.9L446.8,22.6z M446.8,27.3v-3.5h2.4
	c0.5,0,0.9,0.2,1.2,0.5c0.4,0.3,0.5,0.8,0.5,1.2c0,0.5-0.2,0.9-0.5,1.3c-0.3,0.3-0.8,0.5-1.2,0.5H446.8L446.8,27.3z M461.5,28.5
	l-3.7-9.8h-1.5l-3.7,9.8h1.4l0.8-2.2h4.5l0.8,2.2H461.5z M457,20.3l1.8,4.8h-3.6L457,20.3z M468.8,22.9H464v-4.1h-1.3v9.8h1.3v-4.4
	h4.8v4.4h1.3v-9.8h-1.3V22.9z M471.4,18.7V20h2.9v8.5h1.3V20h2.9v-1.2L471.4,18.7L471.4,18.7z M483.2,24.3l-2.6-5.6h-1.3l3.4,7
	l-0.1,0.2c-0.5,1-1.1,1.4-2.2,1.3v1.2c1.6,0.1,2.7-0.6,3.4-2.3l3.2-7.4h-1.3L483.2,24.3L483.2,24.3z M493.7,17.7v-1.1h-3.8v1.1
	H493.7z M495.6,28.5v-9.8h-1.1l-5.1,7.3v-7.3h-1.3v9.8h1.1l5.1-7.3v7.3H495.6z"/>
<path class="st0" d="M170.2,67.7l-3.7-9.8H165l-3.7,9.8h1.4l0.8-2.2h4.5l0.8,2.2H170.2z M165.7,59.5l1.8,4.8h-3.6L165.7,59.5z
	 M172.6,57.9h-1.3v9.8h5.6v-1.2h-4.3V57.9L172.6,57.9z M179.6,57.9h-1.3v9.8h5.6v-1.2h-4.3V57.9L179.6,57.9z M189.7,64v-1.2h-5.2V64
	H189.7z M199.2,67.7l-2.3-3.9c0.6-0.2,1.1-0.6,1.5-1.1s0.6-1.1,0.6-1.7c0-0.8-0.3-1.5-0.9-2.1c-0.6-0.6-1.3-0.9-2.2-0.9h-4v9.8h1.3
	v-3.7h2.3l2.2,3.7L199.2,67.7L199.2,67.7z M195.8,59.1c0.5,0,0.9,0.2,1.2,0.5c0.4,0.3,0.5,0.8,0.5,1.3s-0.2,0.9-0.5,1.3
	c-0.3,0.3-0.8,0.5-1.2,0.5h-2.6v-3.6H195.8L195.8,59.1z M200.3,64.4c0,1,0.3,1.9,1,2.5s1.6,0.9,2.7,0.9c1.1,0,2-0.3,2.7-0.9
	s1-1.5,1-2.5v-6.5h-1.3v6.4c0,1.4-0.9,2.2-2.4,2.2s-2.4-0.9-2.4-2.2v-6.4h-1.3V64.4z M213,67.8c1,0,1.8-0.3,2.5-0.8
	c0.6-0.5,0.9-1.2,0.9-2c0-0.6-0.1-1.1-0.5-1.5c-0.2-0.3-0.4-0.4-0.8-0.6c-0.4-0.2-0.5-0.3-1-0.5c-0.2-0.1-0.4-0.2-0.5-0.2L213,62
	c-0.8-0.2-1.3-0.5-1.6-0.7s-0.5-0.5-0.5-1c0-0.9,0.7-1.4,1.8-1.4s1.8,0.5,2.3,1.5l1.1-0.6c-0.6-1.3-1.8-2.1-3.4-2.1
	c-0.9,0-1.6,0.3-2.2,0.8c-0.6,0.5-0.9,1.2-0.9,2c0,0.7,0.3,1.3,0.6,1.6c0.2,0.2,0.4,0.3,0.7,0.5s0.6,0.3,0.8,0.4l0.9,0.3
	c0.8,0.3,1.4,0.5,1.8,0.7c0.4,0.2,0.5,0.6,0.5,1c0,0.9-0.7,1.5-2.1,1.5c-1.4,0-2.3-0.6-2.6-1.8l-1.1,0.6
	C209.7,66.9,211.1,67.8,213,67.8L213,67.8z M220.8,67.8c1,0,1.8-0.3,2.5-0.8c0.6-0.5,0.9-1.2,0.9-2c0-0.6-0.1-1.1-0.5-1.5
	c-0.2-0.3-0.4-0.4-0.8-0.6c-0.4-0.2-0.5-0.3-1-0.5c-0.2-0.1-0.4-0.2-0.5-0.2l-0.6-0.2c-0.8-0.2-1.3-0.5-1.6-0.7s-0.5-0.5-0.5-1
	c0-0.9,0.7-1.4,1.8-1.4s1.8,0.5,2.3,1.5l1.1-0.6c-0.6-1.3-1.8-2.1-3.4-2.1c-0.9,0-1.6,0.3-2.2,0.8c-0.6,0.5-0.9,1.2-0.9,2
	c0,0.7,0.3,1.3,0.6,1.6c0.2,0.2,0.4,0.3,0.7,0.5s0.6,0.3,0.8,0.4l0.9,0.3c0.8,0.3,1.4,0.5,1.8,0.7c0.4,0.2,0.5,0.6,0.5,1
	c0,0.9-0.7,1.5-2.1,1.5c-1.4,0-2.3-0.6-2.6-1.8l-1.1,0.6C217.6,66.9,219,67.8,220.8,67.8L220.8,67.8z M225.7,67.7h1.3v-9.8h-1.3
	V67.7z M237.1,67.7l-3.7-9.8h-1.5l-3.7,9.8h1.4l0.8-2.2h4.5l0.8,2.2H237.1z M232.6,59.5l1.8,4.8h-3.6L232.6,59.5z M241.8,67.7h1.3
	v-9.8h-1.3V67.7z M251.4,65.2l-5.1-7.3h-1.1v9.8h1.3v-7.3l5.1,7.3h1.1v-9.8h-1.3V65.2L251.4,65.2z M258.9,67.7l3.6-9.8H261l-2.9,8.1
	l-2.9-8.1h-1.4l3.5,9.8L258.9,67.7L258.9,67.7z M265,63.3h4.2v-1.2H265v-3h4.5v-1.2h-5.8v9.8h5.9v-1.2H265V63.3L265,63.3z
	 M274.3,67.8c1,0,1.8-0.3,2.5-0.8c0.6-0.5,0.9-1.2,0.9-2c0-0.6-0.1-1.1-0.5-1.5c-0.2-0.3-0.4-0.4-0.8-0.6c-0.4-0.2-0.5-0.3-1-0.5
	c-0.2-0.1-0.4-0.2-0.5-0.2l-0.6-0.2c-0.8-0.2-1.3-0.5-1.6-0.7c-0.3-0.2-0.5-0.5-0.5-1c0-0.9,0.7-1.4,1.8-1.4c1.1,0,1.8,0.5,2.3,1.5
	l1.1-0.6c-0.6-1.3-1.8-2.1-3.4-2.1c-0.9,0-1.6,0.3-2.2,0.8s-0.9,1.2-0.9,2c0,0.7,0.3,1.3,0.6,1.6c0.2,0.2,0.4,0.3,0.7,0.5
	c0.3,0.2,0.6,0.3,0.8,0.4l0.9,0.3c0.8,0.3,1.4,0.5,1.8,0.7c0.4,0.2,0.5,0.6,0.5,1c0,0.9-0.7,1.5-2.1,1.5s-2.3-0.6-2.6-1.8l-1.1,0.6
	C271.1,66.9,272.5,67.8,274.3,67.8L274.3,67.8z M278.2,57.9v1.2h2.9v8.5h1.3v-8.5h2.9v-1.2L278.2,57.9z M294.4,57.9l-3.1,5.2
	l-3.2-5.2h-1.5v9.8h1.3v-7.6l3.2,5.3h0.2l3.2-5.3v7.6h1.3v-9.8L294.4,57.9L294.4,57.9z M299.3,63.3h4.2v-1.2h-4.2v-3h4.5v-1.2H298
	v9.8h5.9v-1.2h-4.6V63.3L299.3,63.3z M311.7,65.2l-5.1-7.3h-1.1v9.8h1.3v-7.3l5.1,7.3h1.1v-9.8h-1.3V65.2L311.7,65.2z M314.3,57.9
	v1.2h2.9v8.5h1.3v-8.5h2.9v-1.2L314.3,57.9z M329.5,67.8c1,0,1.8-0.3,2.5-0.8c0.6-0.5,0.9-1.2,0.9-2c0-0.6-0.1-1.1-0.5-1.5
	c-0.2-0.3-0.4-0.4-0.8-0.6c-0.4-0.2-0.5-0.3-1-0.5c-0.2-0.1-0.4-0.2-0.5-0.2l-0.6-0.2c-0.8-0.2-1.3-0.5-1.6-0.7
	c-0.3-0.2-0.5-0.5-0.5-1c0-0.9,0.7-1.4,1.8-1.4s1.8,0.5,2.3,1.5l1.1-0.6c-0.6-1.3-1.8-2.1-3.4-2.1c-0.9,0-1.6,0.3-2.2,0.8
	s-0.9,1.2-0.9,2c0,0.7,0.3,1.3,0.6,1.6c0.2,0.2,0.4,0.3,0.7,0.5c0.3,0.2,0.6,0.3,0.8,0.4l0.9,0.3c0.8,0.3,1.4,0.5,1.8,0.7
	c0.4,0.2,0.5,0.6,0.5,1c0,0.9-0.7,1.5-2.1,1.5s-2.3-0.6-2.6-1.8l-1.1,0.6C326.3,66.9,327.6,67.8,329.5,67.8L329.5,67.8z M342.2,67.7
	l-3.7-9.8H337l-3.7,9.8h1.4l0.8-2.2h4.5l0.8,2.2H342.2z M337.8,59.5l1.8,4.8H336L337.8,59.5z M349.1,62.6c0.7-0.5,1.1-1.2,1.1-2
	s-0.3-1.4-0.8-1.9s-1.2-0.8-2-0.8h-4v9.8h4.3c0.8,0,1.5-0.3,2-0.8c0.6-0.5,0.8-1.2,0.8-2C350.6,63.9,350,63,349.1,62.6L349.1,62.6z
	 M347.4,59.1c0.4,0,0.8,0.2,1,0.4c0.3,0.3,0.4,0.6,0.4,1c0,0.8-0.6,1.5-1.5,1.5h-2.6v-3L347.4,59.1L347.4,59.1z M344.7,66.5v-3.2h3
	c0.4,0,0.8,0.2,1.1,0.5c0.3,0.3,0.5,0.7,0.5,1.1c0,0.9-0.7,1.6-1.6,1.6H344.7L344.7,66.5z M360.1,67.7l-3.7-9.8h-1.5l-3.7,9.8h1.4
	l0.8-2.2h4.5l0.8,2.2H360.1z M355.6,59.5l1.8,4.8h-3.6L355.6,59.5z M367.4,65.2l-5.1-7.3h-1.1v9.8h1.3v-7.3l5.1,7.3h1.1v-9.8h-1.3
	V65.2z M370,57.9v1.2h2.9v8.5h1.3v-8.5h2.9v-1.2L370,57.9L370,57.9z M378.3,64.4c0,1,0.3,1.9,1,2.5s1.6,0.9,2.7,0.9s2-0.3,2.7-0.9
	s1-1.5,1-2.5v-6.5h-1.3v6.4c0,1.4-0.9,2.2-2.4,2.2s-2.4-0.9-2.4-2.2v-6.4h-1.3L378.3,64.4L378.3,64.4z M393.5,57.9l-2.7,4.6
	l-2.7-4.6h-1.5l3.5,5.8v4h1.3v-3.9l3.5-5.8L393.5,57.9L393.5,57.9z"/>
<path class="st0" d="M161.3,39.1h6.6v1.1h-5.2v2.9h2.4c0.9,0,1.6,0.1,2.1,0.2c0.5,0.2,1,0.5,1.3,0.9s0.5,1,0.5,1.6
	c0,0.5-0.1,0.9-0.3,1.3c-0.2,0.4-0.6,0.8-1,1c-0.5,0.3-1.2,0.4-2.3,0.4h-4L161.3,39.1L161.3,39.1z M162.6,47.6h2.7
	c0.7,0,1.3-0.1,1.6-0.4c0.4-0.3,0.5-0.7,0.5-1.2c0-0.4-0.1-0.7-0.3-1s-0.5-0.4-0.9-0.5s-1-0.1-1.9-0.1h-1.8L162.6,47.6L162.6,47.6z
	 M179.8,43.9c0,1.4-0.4,2.6-1.3,3.5c-0.9,1-2.1,1.4-3.6,1.4c-1,0-1.8-0.2-2.6-0.7s-1.4-1.1-1.8-1.9c-0.3-0.8-0.5-1.5-0.5-2.2
	c0-1.5,0.4-2.7,1.2-3.6c0.9-1,2.1-1.5,3.6-1.5s2.7,0.5,3.6,1.4C179.4,41.3,179.8,42.5,179.8,43.9L179.8,43.9z M178.4,43.3
	c-0.1-0.9-0.4-1.7-0.9-2.3c-0.6-0.7-1.5-1-2.5-1s-1.8,0.3-2.5,1c-0.5,0.5-0.9,1.3-1,2.3H178.4L178.4,43.3z M178.4,44.4h-6.9
	c0.1,0.9,0.4,1.6,0.9,2.2c0.6,0.7,1.5,1,2.5,1s1.8-0.3,2.4-1C177.9,46.2,178.3,45.4,178.4,44.4z M184.1,48.6v-8.4h-3.3v-1.1h8v1.1
	h-3.3v8.4H184.1L184.1,48.6z M199.1,43.8c0,1.4-0.3,2.6-1.1,3.6s-2,1.5-3.6,1.5s-2.8-0.5-3.6-1.5c-0.7-0.9-1.1-2.1-1.1-3.6v-0.6h7.9
	c-0.1-1-0.4-1.7-0.9-2.2c-0.6-0.6-1.4-0.9-2.3-0.9c-1.5,0-2.4,0.7-2.8,2l-1.3-0.3c0.3-0.9,0.8-1.6,1.5-2.1s1.6-0.7,2.6-0.7
	c0.9,0,1.7,0.2,2.5,0.6c0.7,0.4,1.3,1,1.7,1.8C198.9,42.1,199.1,42.8,199.1,43.8L199.1,43.8z M197.7,44.3h-6.6
	c0.1,1.1,0.4,1.9,0.9,2.5c0.6,0.6,1.4,0.9,2.3,0.9c1,0,1.7-0.3,2.3-0.9C197.3,46.2,197.7,45.3,197.7,44.3z M204.8,48.6v-9.5h3.8
	c0.7,0,1.2,0,1.5,0.1c0.5,0.1,0.9,0.2,1.3,0.4c0.3,0.2,0.6,0.5,0.8,0.9s0.3,0.8,0.3,1.3c0,0.8-0.3,1.5-0.8,2.1s-1.5,0.8-3,0.8h-2.6
	v3.9H204.8L204.8,48.6z M206.1,43.6h2.6c0.9,0,1.5-0.2,1.8-0.5c0.4-0.3,0.5-0.7,0.5-1.3c0-0.4-0.1-0.7-0.3-1s-0.5-0.5-0.8-0.6
	c-0.2-0.1-0.6-0.1-1.3-0.1H206L206.1,43.6L206.1,43.6z M223.1,43.8c0,1.4-0.3,2.6-1.1,3.6s-2,1.5-3.6,1.5s-2.8-0.5-3.6-1.5
	c-0.7-0.9-1.1-2.1-1.1-3.6v-0.6h7.9c-0.1-1-0.4-1.7-0.9-2.2c-0.6-0.6-1.4-0.9-2.3-0.9c-1.5,0-2.4,0.7-2.8,2l-1.3-0.3
	c0.3-0.9,0.8-1.6,1.5-2.1s1.6-0.7,2.6-0.7c0.9,0,1.7,0.2,2.5,0.6c0.8,0.4,1.3,1,1.7,1.8C222.9,42.1,223.1,42.8,223.1,43.8
	L223.1,43.8z M221.7,44.3h-6.6c0.1,1.1,0.4,1.9,0.9,2.5c0.6,0.6,1.4,0.9,2.3,0.9c1,0,1.7-0.3,2.3-0.9
	C221.4,46.2,221.7,45.3,221.7,44.3L221.7,44.3z M232.1,45.3l1.3,0.3c-0.3,1-0.8,1.8-1.5,2.4c-0.7,0.5-1.6,0.8-2.7,0.8
	c-1.1,0-2-0.2-2.7-0.6c-0.7-0.4-1.2-1-1.6-1.8c-0.4-0.8-0.5-1.6-0.5-2.6s0.2-1.9,0.6-2.6c0.4-0.7,1-1.3,1.7-1.7s1.6-0.6,2.5-0.6
	c1,0,1.9,0.2,2.6,0.7c0.7,0.5,1.2,1.2,1.4,2l-1.3,0.3c-0.2-0.7-0.6-1.2-1-1.5s-1-0.5-1.7-0.5c-0.8,0-1.4,0.2-1.9,0.5
	c-0.5,0.4-0.9,0.8-1.1,1.4c-0.2,0.6-0.3,1.2-0.3,1.8c0,0.8,0.1,1.5,0.4,2.1c0.3,0.6,0.6,1.1,1.2,1.4c0.5,0.3,1.1,0.4,1.7,0.4
	c0.8,0,1.4-0.2,1.9-0.6C231.5,46.7,231.9,46.1,232.1,45.3L232.1,45.3z M244,43.8c0,1.4-0.3,2.6-1.1,3.6s-2,1.5-3.6,1.5
	s-2.8-0.5-3.6-1.5c-0.7-0.9-1.1-2.1-1.1-3.6v-0.6h7.9c-0.1-1-0.4-1.7-0.9-2.2c-0.6-0.6-1.4-0.9-2.3-0.9c-1.5,0-2.4,0.7-2.8,2
	l-1.3-0.3c0.3-0.9,0.8-1.6,1.5-2.1s1.6-0.7,2.6-0.7c0.9,0,1.7,0.2,2.5,0.6c0.8,0.4,1.3,1,1.7,1.8C243.8,42.1,244,42.8,244,43.8
	L244,43.8z M242.6,44.3H236c0.1,1.1,0.4,1.9,0.9,2.5c0.6,0.6,1.4,0.9,2.3,0.9c1,0,1.7-0.3,2.3-0.9C242.2,46.2,242.6,45.3,242.6,44.3
	z M245.8,39.1h1.2v7.5l5.4-7.5h1.3v9.5h-1.2v-7.5l-5.4,7.5h-1.3V39.1z M250.8,36.8h0.8c-0.1,0.5-0.3,1-0.6,1.3
	c-0.4,0.3-0.8,0.4-1.4,0.4c-0.6,0-1.1-0.1-1.4-0.4c-0.4-0.3-0.6-0.7-0.6-1.3h0.8c0.1,0.3,0.2,0.5,0.4,0.7c0.2,0.1,0.5,0.2,0.8,0.2
	c0.4,0,0.7-0.1,0.8-0.2C250.6,37.3,250.8,37.1,250.8,36.8L250.8,36.8z M259.9,39.1h1.2v7.5l5.4-7.5h1.3v9.5h-1.2v-7.5l-5.4,7.5h-1.3
	V39.1z M270.1,48.6v-9.5h1.3V43h5.2v-3.9h1.3v9.5h-1.3v-4.5h-5.2v4.5H270.1z M280.2,48.6v-9.5h3.8c0.8,0,1.4,0.1,1.9,0.3
	s0.8,0.5,1.1,0.9c0.3,0.4,0.4,0.8,0.4,1.3c0,0.4-0.1,0.8-0.4,1.1s-0.6,0.6-1.1,0.9c0.6,0.2,1.1,0.5,1.4,0.9s0.5,0.9,0.5,1.4
	c0,0.4-0.1,0.9-0.3,1.2c-0.2,0.4-0.4,0.7-0.7,0.9c-0.3,0.2-0.7,0.4-1.1,0.5s-1,0.2-1.6,0.2h-3.9V48.6z M281.5,43.1h2.2
	c0.6,0,1,0,1.3-0.1s0.6-0.3,0.8-0.5c0.2-0.2,0.3-0.5,0.3-0.8s-0.1-0.6-0.2-0.8c-0.2-0.2-0.4-0.4-0.7-0.5c-0.3-0.1-0.8-0.1-1.5-0.1
	h-2L281.5,43.1L281.5,43.1z M281.5,47.5h2.5c0.4,0,0.7,0,0.9,0c0.3-0.1,0.6-0.1,0.8-0.3c0.2-0.1,0.4-0.3,0.5-0.5s0.2-0.5,0.2-0.8
	c0-0.4-0.1-0.7-0.3-0.9c-0.2-0.3-0.5-0.4-0.8-0.6c-0.3-0.1-0.8-0.2-1.5-0.2h-2.3L281.5,47.5L281.5,47.5z M289.7,48.6v-9.5h7.3v1.1
	h-6v2.9h5.6v1.1H291v3.2h6.2v1.1h-7.5V48.6z M306.3,45.3l1.3,0.3c-0.3,1-0.8,1.8-1.5,2.4c-0.7,0.5-1.6,0.8-2.7,0.8s-2-0.2-2.7-0.6
	c-0.7-0.4-1.2-1-1.6-1.8s-0.5-1.6-0.5-2.6s0.2-1.9,0.6-2.6c0.4-0.7,1-1.3,1.7-1.7s1.6-0.6,2.5-0.6c1,0,1.9,0.2,2.6,0.7
	s1.2,1.2,1.4,2l-1.3,0.3c-0.2-0.7-0.6-1.2-1-1.5s-1-0.5-1.7-0.5c-0.8,0-1.4,0.2-1.9,0.5c-0.5,0.4-0.9,0.8-1.1,1.4
	c-0.2,0.6-0.3,1.2-0.3,1.8c0,0.8,0.1,1.5,0.4,2.1s0.6,1.1,1.2,1.4c0.5,0.3,1.1,0.4,1.7,0.4c0.8,0,1.4-0.2,1.9-0.6
	C305.8,46.7,306.2,46.1,306.3,45.3L306.3,45.3z M311.5,48.6v-8.4h-3.3v-1.1h8v1.1h-3.3v8.4H311.5z M317.6,39.1h1.2v7.5l5.4-7.5h1.3
	v9.5h-1.2v-7.5l-5.4,7.5h-1.3V39.1z M327.7,39.1h1.3v8.4h5.3v-8.4h1.3v8.4h0.9v3.8h-1.2v-2.6h-7.7v-9.6H327.7z M338.2,39.1h1.2v7.5
	l5.4-7.5h1.3v9.5h-1.2v-7.5l-5.4,7.5h-1.3V39.1z M356.4,48.6v-9.5h-4.5c-0.9,0-1.6,0.1-2.1,0.3s-0.8,0.5-1.1,0.9
	c-0.3,0.4-0.4,0.9-0.4,1.4c0,0.7,0.2,1.2,0.7,1.7s1.2,0.8,2.2,0.9c-0.4,0.2-0.6,0.3-0.8,0.5c-0.4,0.3-0.8,0.8-1.1,1.3l-1.8,2.6h1.7
	l1.3-2c0.4-0.6,0.7-1,1-1.3s0.5-0.5,0.7-0.6s0.4-0.2,0.6-0.3c0.2,0,0.4,0,0.7,0h1.6v4.2h1.3V48.6z M355,43.3h-2.9
	c-0.6,0-1.1-0.1-1.4-0.2c-0.3-0.1-0.6-0.3-0.8-0.6c-0.2-0.3-0.3-0.5-0.3-0.9c0-0.5,0.2-0.8,0.5-1.1s0.9-0.4,1.6-0.4h3.2L355,43.3
	L355,43.3z M370.3,48.6H369v-2.7c0-0.8-0.1-1.4-0.4-1.8c-0.3-0.5-0.9-0.7-1.7-0.7c-0.9,0-1.9,0.2-3,0.6v4.6h-1.3v-9.5h1.3v3.8
	c1.2-0.4,2.3-0.6,3.2-0.6c0.6,0,1.2,0.1,1.8,0.4c0.6,0.3,1,0.7,1.2,1.2s0.3,1.1,0.3,1.9v2.8H370.3z M370.8,48.6l3.9-9.5h1.5l4.1,9.5
	h-1.5l-1.2-2.9h-4.3l-1.1,2.9H370.8L370.8,48.6z M373.8,44.7h3.5l-1.1-2.6c-0.3-0.8-0.6-1.5-0.7-2c-0.1,0.6-0.3,1.2-0.6,1.8
	L373.8,44.7z M381.4,39.1h6.6v1.1h-5.2v2.9h2.4c0.9,0,1.6,0.1,2.1,0.2c0.5,0.2,1,0.5,1.3,0.9s0.5,1,0.5,1.6c0,0.5-0.1,0.9-0.3,1.3
	c-0.2,0.4-0.6,0.8-1,1c-0.5,0.3-1.2,0.4-2.3,0.4h-4v-9.4H381.4z M382.8,47.6h2.7c0.7,0,1.3-0.1,1.6-0.4c0.4-0.3,0.5-0.7,0.5-1.2
	c0-0.4-0.1-0.7-0.3-1c-0.2-0.3-0.5-0.4-0.9-0.5s-1-0.1-1.9-0.1h-1.8L382.8,47.6L382.8,47.6z M389.3,48.6l3.9-9.5h1.5l4.1,9.5h-1.5
	l-1.2-2.9h-4.3l-1.1,2.9H389.3L389.3,48.6z M392.2,44.7h3.5l-1.1-2.6c-0.3-0.8-0.6-1.5-0.7-2c-0.1,0.6-0.3,1.2-0.6,1.8L392.2,44.7z
	 M399.9,48.6v-9.5h1.3V43h5.2v-3.9h1.3v9.5h-1.3v-4.5h-5.2v4.5H399.9z M412.6,48.6v-8.4h-3.3v-1.1h8v1.1H414v8.4H412.6z M417.7,39.1
	h1.3l3.3,5.9l2.9-5.9h1.3l-3.8,7.4c-0.5,0.9-0.9,1.5-1.2,1.8c-0.3,0.3-0.7,0.4-1.3,0.4c-0.3,0-0.8-0.1-1.3-0.2v-1.1
	c0.4,0.2,0.7,0.3,1.1,0.3c0.3,0,0.6-0.1,0.8-0.3c0.2-0.2,0.5-0.6,0.8-1.4L417.7,39.1L417.7,39.1z M427.7,39.1h1.2v7.5l5.4-7.5h1.3
	v9.5h-1.2v-7.5l-5.4,7.5h-1.3V39.1z M432.8,36.8h0.8c-0.1,0.5-0.3,1-0.6,1.3c-0.4,0.3-0.8,0.4-1.4,0.4s-1.1-0.1-1.4-0.4
	c-0.4-0.3-0.6-0.7-0.6-1.3h0.8c0.1,0.3,0.2,0.5,0.4,0.7c0.2,0.1,0.5,0.2,0.8,0.2c0.4,0,0.7-0.1,0.8-0.2
	C432.6,37.3,432.7,37.1,432.8,36.8L432.8,36.8z M437.9,39.1h1.3v4.1h2.4c1.6,0,2.6,0.3,3.1,0.8c0.5,0.6,0.7,1.2,0.7,1.9
	s-0.3,1.4-0.8,1.9c-0.5,0.6-1.5,0.8-3,0.8h-3.9v-9.5H437.9z M439.3,47.6h2.4c0.8,0,1.5-0.1,1.8-0.4c0.4-0.3,0.6-0.7,0.6-1.3
	c0-0.4-0.1-0.7-0.3-1c-0.2-0.3-0.5-0.4-0.9-0.5s-1-0.1-1.8-0.1h-1.8L439.3,47.6L439.3,47.6z M446.8,39.1h1.3v9.5h-1.3V39.1z"/>
</svg>
