<?xml version="1.0" encoding="utf-8"?>
<!-- Generator: Adobe Illustrator 22.1.0, SVG Export Plug-In . SVG Version: 6.00 Build 0)  -->
<svg version="1.1" id="Слой_1" xmlns="http://www.w3.org/2000/svg" xmlns:xlink="http://www.w3.org/1999/xlink" x="0px" y="0px"
	 viewBox="0 0 180 180" style="enable-background:new 0 0 180 180;" xml:space="preserve">
<style type="text/css">
	.st0{fill:url(#SVGID_1_);}
	.st1{fill:url(#SVGID_2_);}
	.st2{fill:url(#SVGID_3_);}
</style>
<title></title>
<g id="_x31_._luggage">
</g>
<linearGradient id="SVGID_1_" gradientUnits="userSpaceOnUse" x1="26.3653" y1="26.3653" x2="153.6684" y2="153.6683" gradientTransform="matrix(0.7071 -0.7071 0.7071 0.7071 -37.2862 90.0168)">
	<stop  offset="0" style="stop-color:#08A0D2"/>
	<stop  offset="1" style="stop-color:#0ABAA1"/>
</linearGradient>
<path class="st0" d="M0,89.8l30-30c6.7-6.7,17.2-5.6,24.1,1.4c7,7,6.7,18.8,1.4,24.1c-2.6,2.6-5.4,4-8.1,4.5
	c2.7,0.5,5.5,1.9,8.1,4.5c5.3,5.3,5.7,17.1-1.4,24.1c-6.9,6.9-17.3,8.1-24.1,1.4L0,89.8L0,89.8z M180,90.3l-30,30
	c-6.7,6.7-17.2,5.6-24.1-1.4c-7-7-6.7-18.8-1.4-24.1c2.6-2.6,5.4-4,8.1-4.5c-2.7-0.5-5.5-1.9-8.1-4.5c-5.3-5.3-5.7-17.1,1.4-24.1
	c6.9-6.9,17.3-8.1,24.1-1.4L180,90.3L180,90.3z M145,112l5.5-5.5c1-1,1.9-2,2.9-2.9c4.3-4.5,8.8-8.9,13.2-13.3
	c-4.4-4.4-8.8-8.8-13.2-13.3c-1-0.9-1.9-1.9-2.9-2.9l-5.5-5.5c-3.8-3.3-7.8-5-12.5-1.4c-6,4.5,0.5,14.5,5.4,9.7
	c1.7-1.7,1.1-4.9-0.1-6.1c-1.2-1.2-1.5-1.1-2.3-1.2c2.9-0.8,5.9-0.4,9,2.7c6.4,6.4,0.8,16.5-7.6,18c8.4,1.5,14,11.6,7.6,18
	c-3.1,3.1-6.1,3.5-9,2.7c0.8-0.2,1.1,0,2.3-1.2c1.2-1.2,1.7-4.4,0.1-6.1c-4.8-4.8-11.4,5.1-5.4,9.7C137.2,116.9,141.2,115.2,145,112
	z M90.3,180l30-30c6.7-6.7,5.6-17.2-1.4-24.1c-7-7-18.8-6.7-24.1-1.4c-2.6,2.6-4,5.4-4.5,8.1c-0.5-2.7-1.9-5.5-4.5-8.1
	c-5.3-5.3-17.1-5.7-24.1,1.4c-6.9,6.9-8.1,17.3-1.4,24.1L90.3,180L90.3,180z M112,145l-5.5,5.5c-1,1-2,1.9-2.9,2.9
	c-4.5,4.3-8.9,8.8-13.3,13.2c-4.4-4.4-8.8-8.8-13.3-13.2c-0.9-1-1.9-1.9-2.9-2.9l-5.5-5.5c-3.3-3.8-4.9-7.8-1.4-12.5
	c4.5-6,14.5,0.5,9.7,5.4c-1.7,1.7-4.9,1.1-6.1-0.1c-1.2-1.2-1.1-1.5-1.2-2.3c-0.8,2.9-0.4,5.9,2.7,9c6.4,6.4,16.5,0.8,18-7.6
	c1.5,8.4,11.6,14,18,7.6c3.1-3.1,3.5-6.1,2.7-9c-0.2,0.8,0,1.1-1.2,2.3c-1.2,1.2-4.4,1.7-6.1,0.1c-4.8-4.8,5.1-11.4,9.7-5.4
	C116.9,137.2,115.2,141.2,112,145z M89.8,0l-30,30c-6.7,6.7-5.6,17.2,1.4,24.1c7,7,18.8,6.7,24.1,1.4c2.6-2.6,4-5.4,4.5-8.1
	c0.5,2.7,1.9,5.5,4.5,8.1c5.3,5.3,17.1,5.7,24.1-1.4c6.9-6.9,8.1-17.3,1.4-24.1L89.8,0L89.8,0z M68.1,35
	c7.2-7.2,14.5-14.3,21.7-21.6c7.2,7.2,14.5,14.3,21.7,21.6c3.3,3.8,5,7.8,1.4,12.5c-4.5,6-14.5-0.5-9.7-5.4c1.7-1.7,4.9-1.1,6.1,0.1
	c1.2,1.2,1.1,1.5,1.2,2.3c0.8-2.9,0.4-5.9-2.7-9c-6.4-6.4-16.5-0.8-18,7.6c-1.5-8.4-11.6-14-18-7.6c-3.1,3.1-3.5,6.1-2.7,9
	c0.2-0.8,0-1.1,1.2-2.3c1.2-1.2,4.4-1.7,6.1-0.1c4.8,4.8-5.1,11.4-9.7,5.4C63.1,42.8,64.8,38.8,68.1,35z M35,68.1l-5.5,5.5
	c-1,1-1.9,2-2.9,2.9c-4.3,4.5-8.8,8.9-13.2,13.3c4.4,4.4,8.8,8.8,13.2,13.3c1,0.9,1.9,1.9,2.9,2.9l5.5,5.5c3.8,3.3,7.8,4.9,12.5,1.4
	c6-4.5-0.5-14.5-5.4-9.7c-1.7,1.7-1.1,4.9,0.1,6.1c1.2,1.2,1.5,1.1,2.3,1.2c-2.9,0.8-5.9,0.4-9-2.7c-6.4-6.4-0.8-16.5,7.6-18
	c-8.4-1.5-14-11.6-7.6-18c3.1-3.1,6.1-3.5,9-2.7c-0.8,0.2-1.1,0-2.3,1.2c-1.2,1.2-1.7,4.4-0.1,6.1c4.8,4.8,11.4-5.1,5.4-9.7
	C42.8,63.1,38.8,64.8,35,68.1z"/>
<linearGradient id="SVGID_2_" gradientUnits="userSpaceOnUse" x1="39.2302" y1="39.4668" x2="140.3296" y2="140.5662" gradientTransform="matrix(0.7071 -0.7071 0.7071 0.7071 -37.2862 90.0168)">
	<stop  offset="0" style="stop-color:#08A0D2"/>
	<stop  offset="1" style="stop-color:#0ABAA1"/>
</linearGradient>
<path class="st1" d="M20,84.3c0,1,0.8,1.9,1.9,1.9c0.6,0,1.1-0.3,1.4-0.7l5.2,3.3c-0.1,0.2-0.1,0.3-0.2,0.5l-6.3,0
	c-0.1-0.9-0.9-1.7-1.9-1.7c-1,0-1.9,0.8-1.9,1.9c0,1,0.8,1.9,1.9,1.9c1,0,1.8-0.7,1.9-1.7l6.3,0c0,0.2,0.1,0.4,0.2,0.6l-5.2,3.2
	c-0.3-0.4-0.9-0.7-1.5-0.7c-1,0-1.9,0.8-1.9,1.9c0,1,0.8,1.9,1.9,1.9c1,0,1.9-0.8,1.9-1.9c0-0.3-0.1-0.5-0.2-0.8l5.2-3.2
	c0.1,0.2,0.3,0.4,0.5,0.5l-2.9,5.3c-0.3-0.2-0.6-0.2-0.9-0.2c-1,0-1.9,0.8-1.9,1.9c0,1,0.8,1.9,1.9,1.9c1,0,1.9-0.8,1.9-1.9
	c0-0.5-0.2-1-0.6-1.4l3-5.4c0.1,0,0.2,0.1,0.4,0.1l0,6.2c-0.9,0.1-1.7,0.9-1.7,1.9c0,1,0.8,1.9,1.9,1.9c1,0,1.9-0.8,1.9-1.9
	c0-1-0.7-1.8-1.7-1.9l0-6.2c0.9-0.1,1.7-0.9,1.7-1.9c0-1-0.7-1.8-1.7-1.9l0-6.2c0.9-0.1,1.7-0.9,1.7-1.9c0-1-0.8-1.9-1.9-1.9
	c-1,0-1.9,0.8-1.9,1.9c0,1,0.7,1.8,1.7,1.9l0,6.2c-0.1,0-0.2,0-0.3,0.1l-3-5.4c0.4-0.3,0.6-0.8,0.6-1.4c0-1-0.8-1.9-1.9-1.9
	c-1,0-1.9,0.8-1.9,1.9c0,1,0.8,1.9,1.9,1.9c0.3,0,0.6-0.1,0.9-0.2l2.9,5.4c-0.2,0.1-0.4,0.3-0.6,0.5l-5.2-3.2
	c0.1-0.3,0.2-0.5,0.2-0.8c0-1-0.8-1.9-1.9-1.9C20.9,82.4,20,83.3,20,84.3L20,84.3z M84.4,20.5c1,0,1.9,0.8,1.9,1.9
	c0,0.6-0.3,1.1-0.7,1.4l3.3,5.2c0.2-0.1,0.3-0.1,0.5-0.2l0-6.3c-0.9-0.1-1.7-0.9-1.7-1.9c0-1,0.8-1.9,1.9-1.9c1,0,1.9,0.8,1.9,1.9
	c0,1-0.7,1.8-1.7,1.9l0,6.3c0.2,0,0.4,0.1,0.6,0.2l3.2-5.2c-0.4-0.3-0.7-0.9-0.7-1.5c0-1,0.8-1.9,1.9-1.9c1,0,1.9,0.8,1.9,1.9
	c0,1-0.8,1.9-1.9,1.9c-0.3,0-0.5-0.1-0.8-0.2l-3.2,5.2c0.2,0.1,0.4,0.3,0.5,0.5l5.3-2.9c-0.2-0.3-0.2-0.6-0.2-0.9
	c0-1,0.8-1.9,1.9-1.9c1,0,1.9,0.8,1.9,1.9c0,1-0.8,1.9-1.9,1.9c-0.5,0-1-0.2-1.4-0.6l-5.4,3c0,0.1,0.1,0.2,0.1,0.4l6.2,0
	c0.1-0.9,0.9-1.7,1.9-1.7c1,0,1.9,0.8,1.9,1.9c0,1-0.8,1.9-1.9,1.9c-1,0-1.8-0.7-1.9-1.7l-6.2,0c-0.1,0.9-0.9,1.7-1.9,1.7
	c-1,0-1.8-0.7-1.9-1.7l-6.2,0c-0.1,0.9-0.9,1.7-1.9,1.7c-1,0-1.9-0.8-1.9-1.9c0-1,0.8-1.9,1.9-1.9c1,0,1.8,0.7,1.9,1.7l6.2,0
	c0-0.1,0-0.2,0.1-0.3l-5.4-3c-0.3,0.4-0.8,0.6-1.4,0.6c-1,0-1.9-0.8-1.9-1.9c0-1,0.8-1.9,1.9-1.9c1,0,1.9,0.8,1.9,1.9
	c0,0.3-0.1,0.6-0.2,0.9l5.4,2.9c0.1-0.2,0.3-0.4,0.5-0.6l-3.2-5.2c-0.3,0.1-0.5,0.2-0.8,0.2c-1,0-1.9-0.8-1.9-1.9
	C82.6,21.4,83.4,20.5,84.4,20.5L84.4,20.5z M159.7,95.4c0-1-0.8-1.9-1.9-1.9c-0.6,0-1.1,0.3-1.4,0.7l-5.2-3.2
	c0.1-0.2,0.1-0.3,0.2-0.5l6.3,0c0.1,0.9,0.9,1.7,1.9,1.7c1,0,1.9-0.8,1.9-1.9c0-1-0.8-1.9-1.9-1.9c-1,0-1.8,0.7-1.9,1.7l-6.3,0
	c0-0.2-0.1-0.4-0.2-0.6l5.2-3.2c0.3,0.4,0.9,0.7,1.5,0.7c1,0,1.9-0.8,1.9-1.9c0-1-0.8-1.9-1.9-1.9c-1,0-1.9,0.8-1.9,1.9
	c0,0.3,0.1,0.5,0.2,0.8l-5.2,3.2c-0.1-0.2-0.3-0.4-0.5-0.5l2.9-5.3c0.3,0.2,0.6,0.2,0.9,0.2c1,0,1.9-0.8,1.9-1.9
	c0-1-0.8-1.9-1.9-1.9c-1,0-1.9,0.8-1.9,1.9c0,0.5,0.2,1,0.6,1.4l-3,5.4c-0.1,0-0.2-0.1-0.4-0.1l0-6.2c0.9-0.1,1.7-0.9,1.7-1.9
	c0-1-0.8-1.9-1.9-1.9c-1,0-1.9,0.8-1.9,1.9c0,1,0.7,1.8,1.7,1.9l0,6.2c-0.9,0.1-1.7,0.9-1.7,1.9c0,1,0.7,1.8,1.7,1.9l0,6.2
	c-0.9,0.1-1.7,0.9-1.7,1.9c0,1,0.8,1.9,1.9,1.9c1,0,1.9-0.8,1.9-1.9c0-1-0.7-1.8-1.7-1.9l0-6.2c0.1,0,0.2,0,0.3-0.1l3,5.4
	c-0.4,0.3-0.6,0.8-0.6,1.4c0,1,0.8,1.9,1.9,1.9c1,0,1.9-0.8,1.9-1.9c0-1-0.8-1.9-1.9-1.9c-0.3,0-0.6,0.1-0.9,0.2l-2.9-5.4
	c0.2-0.1,0.4-0.3,0.6-0.5l5.2,3.2c-0.1,0.3-0.2,0.5-0.2,0.8c0,1,0.8,1.9,1.9,1.9C158.8,97.3,159.7,96.4,159.7,95.4L159.7,95.4z
	 M95.9,159.8c-1,0-1.9-0.8-1.9-1.9c0-0.6,0.3-1.1,0.7-1.4l-3.3-5.2c-0.2,0.1-0.3,0.1-0.5,0.2l0,6.3c0.9,0.1,1.7,0.9,1.7,1.9
	c0,1-0.8,1.9-1.9,1.9c-1,0-1.9-0.8-1.9-1.9c0-1,0.7-1.8,1.7-1.9l0-6.3c-0.2,0-0.4-0.1-0.6-0.2l-3.2,5.2c0.4,0.3,0.7,0.9,0.7,1.5
	c0,1-0.8,1.9-1.9,1.9c-1,0-1.9-0.8-1.9-1.9c0-1,0.8-1.9,1.9-1.9c0.3,0,0.5,0.1,0.8,0.2l3.2-5.2c-0.2-0.1-0.4-0.3-0.5-0.5l-5.3,2.9
	c0.2,0.3,0.2,0.6,0.2,0.9c0,1-0.8,1.9-1.9,1.9c-1,0-1.9-0.8-1.9-1.9c0-1,0.8-1.9,1.9-1.9c0.5,0,1,0.2,1.4,0.6l5.4-3
	c0-0.1-0.1-0.2-0.1-0.4l-6.2,0c-0.1,0.9-0.9,1.7-1.9,1.7c-1,0-1.9-0.8-1.9-1.9c0-1,0.8-1.9,1.9-1.9c1,0,1.8,0.7,1.9,1.7l6.2,0
	c0.1-0.9,0.9-1.7,1.9-1.7c1,0,1.8,0.7,1.9,1.7l6.2,0c0.1-0.9,0.9-1.7,1.9-1.7c1,0,1.9,0.8,1.9,1.9c0,1-0.8,1.9-1.9,1.9
	c-1,0-1.8-0.7-1.9-1.7l-6.2,0c0,0.1,0,0.2-0.1,0.3l5.4,3c0.3-0.4,0.8-0.6,1.4-0.6c1,0,1.9,0.8,1.9,1.9c0,1-0.8,1.9-1.9,1.9
	s-1.9-0.8-1.9-1.9c0-0.3,0.1-0.6,0.2-0.9l-5.4-2.9c-0.1,0.2-0.3,0.4-0.5,0.6l3.2,5.2c0.3-0.1,0.5-0.2,0.9-0.2c1,0,1.9,0.8,1.9,1.9
	C97.8,159,97,159.8,95.9,159.8L95.9,159.8z"/>
<linearGradient id="SVGID_3_" gradientUnits="userSpaceOnUse" x1="68.0751" y1="68.0745" x2="111.9592" y2="111.9587" gradientTransform="matrix(0.7071 -0.7071 0.7071 0.7071 -37.2862 90.0168)">
	<stop  offset="0" style="stop-color:#08A0D2"/>
	<stop  offset="1" style="stop-color:#0ABAA1"/>
</linearGradient>
<path class="st2" d="M66.6,82.2c1.6-1.6,4.1-1.6,5.7,0c4.9,4.9-4.9,11.1-10.9,5.1c-6.3-6.3,0.7-16.7,8.8-13.7
	c-3.2-3-7.1-5.5-7.7-10.8c0,0,0,0,0-0.1c0-0.2,0.1-0.3,0.3-0.2c0,0,0,0,0,0c5.3,0.7,7.9,4.5,10.8,7.7c-3-8.2,7.4-15.1,13.7-8.8
	c6,6-0.2,15.8-5.1,10.9c-1.6-1.6-1.5-4.1,0-5.7c1.2-1.2,2.9-1.5,4.3-0.9c-0.1-0.2-0.3-0.3-0.4-0.5c-10.3-10.3-16.1,14,1.1,8.7
	c-1.9,3.9-0.4,8.6,2.6,12.5l-0.4-0.1l-3.6-0.6l0.6,3.6l0.1,0.5c-3.9-3-8.7-4.5-12.5-2.7c5.3-17.2-19-11.4-8.7-1.1
	c0.1,0.1,0.3,0.3,0.5,0.4C65.2,85.1,65.5,83.4,66.6,82.2z M90.2,86.5c3-3.9,4.5-8.7,2.6-12.6c17.2,5.3,11.4-19,1.1-8.7
	c-0.1,0.1-0.3,0.3-0.4,0.5c1.4-0.6,3.2-0.3,4.3,0.9c1.6,1.6,1.6,4.1,0,5.7c-4.9,4.9-11.1-4.9-5.1-10.9c6.3-6.3,16.7,0.7,13.7,8.8
	c3-3.2,5.5-7.1,10.8-7.7c0,0,0,0,0,0c0.2,0,0.3,0,0.3,0.2c0,0,0,0,0,0.1c-0.7,5.3-4.5,7.9-7.7,10.8c8.2-3,15.1,7.4,8.8,13.7
	c-6,6-15.8-0.2-10.9-5.1c1.6-1.6,4.1-1.5,5.7,0c1.2,1.2,1.5,2.9,0.9,4.3c0.2-0.1,0.3-0.3,0.5-0.4c10.3-10.3-14-16.1-8.7,1.1
	c-3.9-1.9-8.7-0.4-12.6,2.7L93,87L90.2,86.5L90.2,86.5z M93.6,90.3c3.9,3,8.7,4.5,12.5,2.6c-5.3,17.2,19,11.4,8.7,1.1
	c-0.1-0.1-0.3-0.3-0.5-0.4c0.6,1.4,0.3,3.2-0.9,4.3c-1.6,1.6-4.1,1.6-5.7,0c-4.9-4.9,4.9-11.1,10.9-5.1c6.3,6.3-0.7,16.7-8.8,13.7
	c3.2,3,7.1,5.5,7.7,10.8c0,0,0,0,0,0c0,0.2,0,0.3-0.2,0.3c0,0,0,0-0.1,0c-5.3-0.7-7.9-4.5-10.8-7.7c3,8.2-7.4,15.1-13.7,8.8
	c-6-6,0.2-15.8,5.1-10.9c1.6,1.6,1.5,4.1,0,5.7c-1.2,1.2-2.9,1.5-4.3,0.9c0.1,0.2,0.3,0.3,0.4,0.5c10.3,10.3,16.1-14-1.1-8.7
	c1.9-3.8,0.4-8.6-2.7-12.5l0.5,0.1l3.6,0.6l-0.6-3.6C93.6,90.6,93.6,90.3,93.6,90.3z M89.9,93.5c-3.1,3.9-4.6,8.7-2.7,12.6
	c-17.2-5.3-11.4,19-1.1,8.7c0.1-0.1,0.3-0.3,0.4-0.5c-1.4,0.6-3.2,0.3-4.3-0.9c-1.6-1.6-1.6-4.1,0-5.7c4.9-4.9,11.1,4.9,5.1,10.9
	c-6.3,6.3-16.7-0.7-13.7-8.8c-3,3.2-5.5,7.1-10.8,7.7c0,0,0,0-0.1,0c-0.2,0-0.3,0-0.2-0.3c0,0,0,0,0,0c0.7-5.3,4.5-7.9,7.7-10.8
	c-8.2,3-15.1-7.4-8.8-13.7c6-6,15.8,0.2,10.9,5.1c-1.6,1.6-4.1,1.5-5.7,0c-1.2-1.2-1.5-2.9-0.9-4.3c-0.2,0.1-0.3,0.3-0.5,0.4
	c-10.3,10.3,14,16.1,8.7-1.1c3.9,1.9,8.7,0.4,12.6-2.6L87,93L89.9,93.5L89.9,93.5z"/>
</svg>
