<?xml version="1.0" encoding="utf-8"?>
<!-- Generator: Adobe Illustrator 22.1.0, SVG Export Plug-In . SVG Version: 6.00 Build 0)  -->
<svg version="1.1" id="Layer_1" xmlns="http://www.w3.org/2000/svg" xmlns:xlink="http://www.w3.org/1999/xlink" x="0px" y="0px"
	 viewBox="0 0 60.7 45.9" style="enable-background:new 0 0 60.7 45.9;" xml:space="preserve">
<style type="text/css">
	.st0{fill:#FFFFFF;}
</style>
<path class="st0" d="M51.4,45.9l-14.9-9.7l-14.9,9.7l4.6-17.2L12.4,17.5l17.7-1L36.5,0l6.4,16.6l17.7,1L46.9,28.7L51.4,45.9z
	 M17.7,19.3L28.4,28l-3.6,13.4l11.7-7.5l11.7,7.5L44.6,28l10.8-8.8l-13.9-0.7l-5-13l-5,13L17.7,19.3z"/>
<path class="st0" d="M18.1,43l-6.9-4.5L4.3,43L6.4,35L0,29.8l8.2-0.4l3-7.7l3,7.7l8.2,0.4L16,35L18.1,43z M2.4,30.6l5,4.1l-1.7,6.2
	l5.4-3.5l5.4,3.5l-1.7-6.2l5-4.1l-6.4-0.3l-2.3-6l-2.3,6L2.4,30.6z"/>
<path class="st0" d="M44.9,36.9l-8.4-5.4l-8.4,5.4l2.6-9.7l-7.8-6.3l10-0.5l3.6-9.4l3.6,9.4l10,0.5l-7.8,6.3L44.9,36.9z M25.9,21.9
	l6.1,4.9l-2,7.6l6.6-4.3l6.6,4.3l-2-7.6l6.1-4.9l-7.8-0.4l-2.8-7.3l-2.8,7.3L25.9,21.9z"/>
</svg>
