<?xml version="1.0" encoding="utf-8"?>
<!-- Generator: Adobe Illustrator 22.1.0, SVG Export Plug-In . SVG Version: 6.00 Build 0)  -->
<svg version="1.1" id="OBJECTS" xmlns="http://www.w3.org/2000/svg" xmlns:xlink="http://www.w3.org/1999/xlink" x="0px" y="0px"
	 viewBox="0 0 310.8 321.9" style="enable-background:new 0 0 310.8 321.9;" xml:space="preserve">
<style type="text/css">
	.st0{fill:url(#SVGID_1_);}
	.st1{opacity:0.3;fill:url(#SVGID_2_);}
	.st2{opacity:0.1;}
	.st3{opacity:0.3;fill:url(#SVGID_3_);}
	.st4{fill:#FFFFFF;}
</style>
<g>
	<g>
		
			<linearGradient id="SVGID_1_" gradientUnits="userSpaceOnUse" x1="-4.1429" y1="269.3549" x2="212.7499" y2="52.4621" gradientTransform="matrix(1 0 -0.1763 1 30.3087 0)">
			<stop  offset="0" style="stop-color:#08A0D2"/>
			<stop  offset="1" style="stop-color:#0ABAA1"/>
		</linearGradient>
		<path class="st0" d="M291.8,126.1L106,6.6c-24.9-16-58-1.5-63.2,27.6L0.7,273.2c-6,33.9,29.5,59.8,60,43.9l228-119.5
			C316.8,182.8,318.5,143.2,291.8,126.1z"/>
		<linearGradient id="SVGID_2_" gradientUnits="userSpaceOnUse" x1="74.9494" y1="202.737" x2="222.4044" y2="55.2819">
			<stop  offset="0" style="stop-color:#FAFAFA"/>
			<stop  offset="1" style="stop-color:#FAFAFA;stop-opacity:0"/>
		</linearGradient>
		<path class="st1" d="M291.8,126.1L106,6.6c-24.9-16-58-1.5-63.2,27.6L22.4,150.1c23.6-12.5,51.6-17.8,76.6-8.9
			c16.9,6.1,31,18,46,27.9c38.7,25.7,86.6,38.5,132.6,31.6c2.5-0.4,5-0.8,7.5-1.3l3.7-1.9C316.8,182.8,318.5,143.2,291.8,126.1z"/>
		<path class="st2" d="M144.9,169.2c-15-9.9-29-21.9-46-27.9c-24.9-8.9-52.9-3.7-76.6,8.9L42.8,34.3l-22.4,127
			c21.9-14,48.3-21.5,73.3-15.3c17.4,4.3,32.6,14.8,48.5,23.2c3.9,2.1,7.9,4,12,5.8C151,173.1,147.9,171.2,144.9,169.2z"/>
		<linearGradient id="SVGID_3_" gradientUnits="userSpaceOnUse" x1="34.3393" y1="94.6166" x2="310.7975" y2="94.6166">
			<stop  offset="0" style="stop-color:#FAFAFA"/>
			<stop  offset="1" style="stop-color:#FAFAFA;stop-opacity:0"/>
		</linearGradient>
		<path class="st3" d="M291.8,126.1L106,6.6c-24.9-16-58-1.5-63.2,27.6l-8.5,47.9c19.2-4.8,39.7-4,57.1,5.1
			c32.9,17.2,46.3,57.6,75.1,80.9c26.9,21.8,65.5,25.9,98.5,15.6c16.6-5.2,32-13.7,45.8-24.3C310.4,146.7,304.1,134,291.8,126.1z"/>
		<path class="st2" d="M91.4,87.3c-17.4-9.1-37.9-9.9-57.1-5.1l-1.6,9.2c17.4-4.9,36-5,52.6,2c34.1,14.5,50.6,53.8,81.2,74.8
			C137.7,144.9,124.3,104.5,91.4,87.3z"/>
	</g>
</g>
<g>
	<path class="st4" d="M64.7,184.7h30.2v14.9H49.1v-79.2h15.6V184.7z"/>
	<path class="st4" d="M103.7,120.4h15.6v79.2h-15.6V120.4z"/>
	<path class="st4" d="M153.6,199.6L127,120.4h17l19.3,60.9l19.2-60.9h17.1l-26.7,79.2H153.6z"/>
	<path class="st4" d="M222.8,184.7h33.4v14.9h-49v-79.2h48.4v14.9h-32.8v16.9h30v14.7h-30V184.7z"/>
</g>
</svg>
