<?xml version="1.0" encoding="utf-8"?>
<!-- Generator: Adobe Illustrator 22.1.0, SVG Export Plug-In . SVG Version: 6.00 Build 0)  -->
<svg version="1.1" id="Слой_1" xmlns="http://www.w3.org/2000/svg" xmlns:xlink="http://www.w3.org/1999/xlink" x="0px" y="0px"
	 viewBox="0 0 17 17" style="enable-background:new 0 0 17 17;" xml:space="preserve">
<style type="text/css">
	.st0{fill:#3C4150;}
</style>
<g>
	<g id="Icon-Location" transform="translate(232.000000, 376.000000)">
		<path id="Fill-55" class="st0" d="M-223.5-359l-0.3-0.4c-0.2-0.3-5.7-6.7-5.7-10.6c0-3.3,2.7-6,6-6c3.3,0,6,2.7,6,6
			c0,3.8-5.5,10.3-5.7,10.6L-223.5-359L-223.5-359z M-223.5-375.2c-2.9,0-5.2,2.3-5.2,5.2c0,3,4,8.2,5.2,9.6
			c1.2-1.5,5.2-6.6,5.2-9.6C-218.3-372.8-220.6-375.2-223.5-375.2L-223.5-375.2z"/>
		<path id="Fill-56" class="st0" d="M-223.5-367.7c-1.3,0-2.3-1-2.3-2.3s1-2.3,2.3-2.3c1.3,0,2.3,1,2.3,2.3
			S-222.2-367.7-223.5-367.7L-223.5-367.7z M-223.5-371.4c-0.8,0-1.4,0.6-1.4,1.4s0.6,1.4,1.4,1.4s1.4-0.6,1.4-1.4
			S-222.7-371.4-223.5-371.4L-223.5-371.4z"/>
	</g>
</g>
</svg>
